<svg xmlns="http://www.w3.org/2000/svg" xmlns:xlink="http://www.w3.org/1999/xlink" width="2048" zoomAndPan="magnify" viewBox="0 0 1536 1535.999932" height="2048" preserveAspectRatio="xMidYMid meet" version="1.2"><defs><clipPath id="3aaf34bd8e"><path d="M 531 415 L 1006 415 L 1006 848 L 531 848 Z M 531 415 "/></clipPath><clipPath id="2658187899"><path d="M 764.476562 419.289062 C 790.492188 409.789062 821.539062 416.535156 841.097656 436.191406 C 888.378906 483.296875 935.566406 530.589844 982.847656 577.691406 C 996.332031 591.082031 1004.6875 609.410156 1005.636719 628.40625 C 1006.394531 650.246094 996.332031 671.710938 980.378906 686.429688 C 933.382812 733.152344 886.859375 780.164062 839.769531 826.792969 C 816.316406 849.394531 775.964844 854.804688 749.664062 834.386719 C 749.570312 817.292969 753.464844 800.011719 761.535156 784.910156 C 769.414062 770.097656 784.226562 758.605469 801.21875 756.992188 C 814.417969 755.1875 826.949219 761.167969 840.050781 760.789062 C 849.261719 761.167969 859.800781 758.792969 865.117188 750.628906 C 869.199219 742.648438 866.445312 733.34375 868.914062 724.988281 C 872.238281 721.28125 876.511719 718.527344 880.402344 715.488281 C 879.359375 712.261719 878.03125 709.125 876.984375 705.992188 C 886.101562 699.914062 881.542969 689.183594 882.019531 680.257812 C 888 675.128906 897.777344 674.464844 901.765625 667.152344 C 901.578125 657.464844 893.316406 650.722656 888.664062 642.933594 C 881.636719 631.917969 872.144531 619.097656 877.933594 605.519531 C 885.246094 582.820312 882.777344 557.464844 871.574219 536.476562 C 860.558594 513.78125 839.863281 496.96875 817.265625 486.714844 C 793.910156 476.648438 768.558594 471.804688 743.210938 470.570312 C 728.019531 469.808594 713.113281 473.511719 698.300781 476.171875 C 707.890625 465.15625 718.617188 455.28125 728.871094 444.738281 C 739.03125 434.007812 750.234375 423.75 764.476562 419.289062 Z M 563.859375 507.132812 C 551.421875 518.242188 552.75 539.324219 565.378906 549.773438 C 585.03125 568.859375 603.738281 588.898438 623.863281 607.511719 C 624.054688 592.316406 624.8125 577.027344 626.238281 561.929688 C 633.453125 527.359375 656.714844 496.589844 688.425781 480.730469 C 679.691406 471.519531 670.863281 462.308594 661.746094 453.476562 C 655.765625 447.683594 648.074219 442.363281 639.339844 443.125 C 629.371094 442.839844 621.207031 449.390625 614.65625 456.132812 C 597.851562 473.324219 580.664062 490.039062 563.859375 507.132812 Z M 700.863281 532.679688 C 696.117188 537.617188 689.472656 543.03125 691.558594 550.816406 C 696.308594 559.648438 704.851562 565.726562 711.59375 573.039062 C 716.148438 577.21875 721.5625 584.054688 728.589844 580.921875 C 737.132812 575.601562 743.496094 567.625 750.804688 560.789062 C 754.984375 556.230469 761.152344 551.007812 758.683594 544.074219 C 752.515625 534.765625 743.777344 527.550781 735.992188 519.667969 C 731.816406 516.058594 725.835938 510.359375 720.234375 514.824219 C 712.828125 519.859375 707.128906 526.695312 700.863281 532.679688 Z M 540.027344 616.4375 C 536.609375 620.238281 531.769531 623.65625 531.199219 629.164062 C 529.394531 640.65625 541.832031 646.542969 548.097656 654.234375 C 555.21875 660.125 561.769531 672.46875 572.691406 668.574219 C 582.5625 662.59375 589.589844 653.097656 597.945312 645.308594 C 602.3125 640.464844 609.339844 633.914062 605.351562 626.789062 C 597.851562 616.535156 588.070312 608.082031 579.050781 599.15625 C 574.492188 594.214844 566.613281 591.460938 560.917969 596.210938 C 553.226562 602.097656 547.054688 609.792969 540.027344 616.4375 Z M 666.78125 612.449219 C 649.6875 629.257812 632.980469 646.449219 615.792969 663.257812 C 609.90625 668.957031 603.925781 675.792969 603.832031 684.53125 C 602.40625 694.027344 606.300781 703.523438 613.230469 710.078125 C 627.28125 724.226562 641.714844 738.09375 655.574219 752.433594 C 661.558594 758.414062 667.253906 764.96875 674.183594 770 C 685.386719 778.261719 702.195312 776.457031 711.78125 766.582031 C 730.867188 747.683594 749.761719 728.59375 768.75 709.792969 C 780.332031 698.871094 781.378906 678.640625 769.605469 667.4375 C 751.183594 648.726562 732.574219 630.113281 713.964844 611.691406 C 706.277344 603.808594 695.074219 597.730469 683.871094 601.148438 C 677.316406 602.953125 671.714844 607.605469 666.78125 612.449219 Z M 666.78125 612.449219 "/></clipPath><linearGradient x1="24.317889" gradientTransform="matrix(0.949443,0,0,0.949671,531.0091,415.013872)" y1="-29.467154" x2="488.453577" gradientUnits="userSpaceOnUse" y2="474.381169" id="0e78c30f3b"><stop style="stop-color:#0017a0;stop-opacity:1;" offset="0"/><stop style="stop-color:#0017a0;stop-opacity:1;" offset="0.25"/><stop style="stop-color:#0017a0;stop-opacity:1;" offset="0.3125"/><stop style="stop-color:#0018a0;stop-opacity:1;" offset="0.316406"/><stop style="stop-color:#0019a0;stop-opacity:1;" offset="0.320313"/><stop style="stop-color:#0019a0;stop-opacity:1;" offset="0.324219"/><stop style="stop-color:#001aa1;stop-opacity:1;" offset="0.328125"/><stop style="stop-color:#001ba1;stop-opacity:1;" offset="0.332031"/><stop style="stop-color:#001ca1;stop-opacity:1;" offset="0.335938"/><stop style="stop-color:#001da1;stop-opacity:1;" offset="0.339844"/><stop style="stop-color:#001da1;stop-opacity:1;" offset="0.34375"/><stop style="stop-color:#001ea2;stop-opacity:1;" offset="0.347656"/><stop style="stop-color:#001fa2;stop-opacity:1;" offset="0.351563"/><stop style="stop-color:#0020a2;stop-opacity:1;" offset="0.355469"/><stop style="stop-color:#0021a2;stop-opacity:1;" offset="0.359375"/><stop style="stop-color:#0021a2;stop-opacity:1;" offset="0.363281"/><stop style="stop-color:#0022a2;stop-opacity:1;" offset="0.367188"/><stop style="stop-color:#0023a3;stop-opacity:1;" offset="0.371094"/><stop style="stop-color:#0024a3;stop-opacity:1;" offset="0.375"/><stop style="stop-color:#0025a3;stop-opacity:1;" offset="0.378906"/><stop style="stop-color:#0025a3;stop-opacity:1;" offset="0.382813"/><stop style="stop-color:#0026a3;stop-opacity:1;" offset="0.386719"/><stop style="stop-color:#0027a4;stop-opacity:1;" offset="0.390625"/><stop style="stop-color:#0028a4;stop-opacity:1;" offset="0.394531"/><stop style="stop-color:#0028a4;stop-opacity:1;" offset="0.398438"/><stop style="stop-color:#0029a4;stop-opacity:1;" offset="0.402344"/><stop style="stop-color:#002aa4;stop-opacity:1;" offset="0.40625"/><stop style="stop-color:#002ba4;stop-opacity:1;" offset="0.410156"/><stop style="stop-color:#002ca5;stop-opacity:1;" offset="0.414062"/><stop style="stop-color:#002ca5;stop-opacity:1;" offset="0.417969"/><stop style="stop-color:#002da5;stop-opacity:1;" offset="0.421875"/><stop style="stop-color:#002ea5;stop-opacity:1;" offset="0.425781"/><stop style="stop-color:#002fa5;stop-opacity:1;" offset="0.429688"/><stop style="stop-color:#0030a6;stop-opacity:1;" offset="0.433594"/><stop style="stop-color:#0030a6;stop-opacity:1;" offset="0.4375"/><stop style="stop-color:#0031a6;stop-opacity:1;" offset="0.441406"/><stop style="stop-color:#0032a6;stop-opacity:1;" offset="0.445312"/><stop style="stop-color:#0033a6;stop-opacity:1;" offset="0.449219"/><stop style="stop-color:#0034a6;stop-opacity:1;" offset="0.453125"/><stop style="stop-color:#0034a7;stop-opacity:1;" offset="0.457031"/><stop style="stop-color:#0035a7;stop-opacity:1;" offset="0.460938"/><stop style="stop-color:#0036a7;stop-opacity:1;" offset="0.464844"/><stop style="stop-color:#0037a7;stop-opacity:1;" offset="0.46875"/><stop style="stop-color:#0038a7;stop-opacity:1;" offset="0.472656"/><stop style="stop-color:#0038a7;stop-opacity:1;" offset="0.476563"/><stop style="stop-color:#0039a8;stop-opacity:1;" offset="0.480469"/><stop style="stop-color:#003aa8;stop-opacity:1;" offset="0.484375"/><stop style="stop-color:#003ba8;stop-opacity:1;" offset="0.488281"/><stop style="stop-color:#003ba8;stop-opacity:1;" offset="0.492188"/><stop style="stop-color:#003ca8;stop-opacity:1;" offset="0.496094"/><stop style="stop-color:#003da9;stop-opacity:1;" offset="0.5"/><stop style="stop-color:#003ea9;stop-opacity:1;" offset="0.503906"/><stop style="stop-color:#003fa9;stop-opacity:1;" offset="0.507813"/><stop style="stop-color:#003fa9;stop-opacity:1;" offset="0.511719"/><stop style="stop-color:#0040a9;stop-opacity:1;" offset="0.515625"/><stop style="stop-color:#0041a9;stop-opacity:1;" offset="0.519531"/><stop style="stop-color:#0042aa;stop-opacity:1;" offset="0.523438"/><stop style="stop-color:#0043aa;stop-opacity:1;" offset="0.527344"/><stop style="stop-color:#0043aa;stop-opacity:1;" offset="0.53125"/><stop style="stop-color:#0044aa;stop-opacity:1;" offset="0.535156"/><stop style="stop-color:#0045aa;stop-opacity:1;" offset="0.539063"/><stop style="stop-color:#0046ab;stop-opacity:1;" offset="0.542969"/><stop style="stop-color:#0047ab;stop-opacity:1;" offset="0.546875"/><stop style="stop-color:#0047ab;stop-opacity:1;" offset="0.550781"/><stop style="stop-color:#0048ab;stop-opacity:1;" offset="0.554688"/><stop style="stop-color:#0049ab;stop-opacity:1;" offset="0.558594"/><stop style="stop-color:#004aab;stop-opacity:1;" offset="0.5625"/><stop style="stop-color:#004bac;stop-opacity:1;" offset="0.566406"/><stop style="stop-color:#004bac;stop-opacity:1;" offset="0.570313"/><stop style="stop-color:#004cac;stop-opacity:1;" offset="0.574219"/><stop style="stop-color:#004dac;stop-opacity:1;" offset="0.578125"/><stop style="stop-color:#004eac;stop-opacity:1;" offset="0.582031"/><stop style="stop-color:#004ead;stop-opacity:1;" offset="0.585938"/><stop style="stop-color:#004fad;stop-opacity:1;" offset="0.589844"/><stop style="stop-color:#0050ad;stop-opacity:1;" offset="0.59375"/><stop style="stop-color:#0051ad;stop-opacity:1;" offset="0.597656"/><stop style="stop-color:#0052ad;stop-opacity:1;" offset="0.601563"/><stop style="stop-color:#0052ad;stop-opacity:1;" offset="0.605469"/><stop style="stop-color:#0053ae;stop-opacity:1;" offset="0.609375"/><stop style="stop-color:#0054ae;stop-opacity:1;" offset="0.613281"/><stop style="stop-color:#0055ae;stop-opacity:1;" offset="0.617188"/><stop style="stop-color:#0056ae;stop-opacity:1;" offset="0.621094"/><stop style="stop-color:#0056ae;stop-opacity:1;" offset="0.625"/><stop style="stop-color:#0057af;stop-opacity:1;" offset="0.628906"/><stop style="stop-color:#0058af;stop-opacity:1;" offset="0.632812"/><stop style="stop-color:#0059af;stop-opacity:1;" offset="0.636719"/><stop style="stop-color:#005aaf;stop-opacity:1;" offset="0.640625"/><stop style="stop-color:#005aaf;stop-opacity:1;" offset="0.644531"/><stop style="stop-color:#005baf;stop-opacity:1;" offset="0.648438"/><stop style="stop-color:#005cb0;stop-opacity:1;" offset="0.652344"/><stop style="stop-color:#005db0;stop-opacity:1;" offset="0.65625"/><stop style="stop-color:#005db0;stop-opacity:1;" offset="0.660156"/><stop style="stop-color:#005eb0;stop-opacity:1;" offset="0.664062"/><stop style="stop-color:#005fb0;stop-opacity:1;" offset="0.667969"/><stop style="stop-color:#0060b1;stop-opacity:1;" offset="0.671875"/><stop style="stop-color:#0061b1;stop-opacity:1;" offset="0.675781"/><stop style="stop-color:#0061b1;stop-opacity:1;" offset="0.679688"/><stop style="stop-color:#0062b1;stop-opacity:1;" offset="0.683594"/><stop style="stop-color:#0063b1;stop-opacity:1;" offset="0.6875"/><stop style="stop-color:#0064b1;stop-opacity:1;" offset="0.691406"/><stop style="stop-color:#0065b2;stop-opacity:1;" offset="0.695312"/><stop style="stop-color:#0065b2;stop-opacity:1;" offset="0.699219"/><stop style="stop-color:#0066b2;stop-opacity:1;" offset="0.703125"/><stop style="stop-color:#0067b2;stop-opacity:1;" offset="0.707031"/><stop style="stop-color:#0068b2;stop-opacity:1;" offset="0.710938"/><stop style="stop-color:#0069b2;stop-opacity:1;" offset="0.714844"/><stop style="stop-color:#0069b3;stop-opacity:1;" offset="0.71875"/><stop style="stop-color:#006ab3;stop-opacity:1;" offset="0.722656"/><stop style="stop-color:#006bb3;stop-opacity:1;" offset="0.726562"/><stop style="stop-color:#006cb3;stop-opacity:1;" offset="0.730469"/><stop style="stop-color:#006db3;stop-opacity:1;" offset="0.734375"/><stop style="stop-color:#006db4;stop-opacity:1;" offset="0.738281"/><stop style="stop-color:#006eb4;stop-opacity:1;" offset="0.742188"/><stop style="stop-color:#006fb4;stop-opacity:1;" offset="0.746094"/><stop style="stop-color:#0070b4;stop-opacity:1;" offset="0.75"/><stop style="stop-color:#0070b4;stop-opacity:1;" offset="0.753906"/><stop style="stop-color:#0071b4;stop-opacity:1;" offset="0.757812"/><stop style="stop-color:#0072b5;stop-opacity:1;" offset="0.761719"/><stop style="stop-color:#0073b5;stop-opacity:1;" offset="0.765625"/><stop style="stop-color:#0074b5;stop-opacity:1;" offset="0.769531"/><stop style="stop-color:#0074b5;stop-opacity:1;" offset="0.773438"/><stop style="stop-color:#0075b5;stop-opacity:1;" offset="0.777344"/><stop style="stop-color:#0076b6;stop-opacity:1;" offset="0.78125"/><stop style="stop-color:#0077b6;stop-opacity:1;" offset="0.785156"/><stop style="stop-color:#0078b6;stop-opacity:1;" offset="0.789062"/><stop style="stop-color:#0078b6;stop-opacity:1;" offset="0.792969"/><stop style="stop-color:#0079b6;stop-opacity:1;" offset="0.796875"/><stop style="stop-color:#007ab6;stop-opacity:1;" offset="0.800781"/><stop style="stop-color:#007bb7;stop-opacity:1;" offset="0.804688"/><stop style="stop-color:#007cb7;stop-opacity:1;" offset="0.808594"/><stop style="stop-color:#007cb7;stop-opacity:1;" offset="0.8125"/><stop style="stop-color:#007db7;stop-opacity:1;" offset="0.816406"/><stop style="stop-color:#007eb7;stop-opacity:1;" offset="0.820313"/><stop style="stop-color:#007fb8;stop-opacity:1;" offset="0.824219"/><stop style="stop-color:#007fb8;stop-opacity:1;" offset="0.828125"/><stop style="stop-color:#0080b8;stop-opacity:1;" offset="0.832031"/><stop style="stop-color:#0081b8;stop-opacity:1;" offset="0.835938"/><stop style="stop-color:#0082b8;stop-opacity:1;" offset="0.839844"/><stop style="stop-color:#0083b8;stop-opacity:1;" offset="0.84375"/><stop style="stop-color:#0083b9;stop-opacity:1;" offset="0.847656"/><stop style="stop-color:#0084b9;stop-opacity:1;" offset="0.851563"/><stop style="stop-color:#0085b9;stop-opacity:1;" offset="0.855469"/><stop style="stop-color:#0086b9;stop-opacity:1;" offset="0.859375"/><stop style="stop-color:#0087b9;stop-opacity:1;" offset="0.863281"/><stop style="stop-color:#0087ba;stop-opacity:1;" offset="0.867188"/><stop style="stop-color:#0088ba;stop-opacity:1;" offset="0.871094"/><stop style="stop-color:#0089ba;stop-opacity:1;" offset="0.875"/><stop style="stop-color:#008aba;stop-opacity:1;" offset="0.878906"/><stop style="stop-color:#008bba;stop-opacity:1;" offset="0.882813"/><stop style="stop-color:#008bba;stop-opacity:1;" offset="0.886719"/><stop style="stop-color:#008cbb;stop-opacity:1;" offset="0.890625"/><stop style="stop-color:#008dbb;stop-opacity:1;" offset="0.894531"/><stop style="stop-color:#008ebb;stop-opacity:1;" offset="0.898438"/><stop style="stop-color:#008fbb;stop-opacity:1;" offset="0.902344"/><stop style="stop-color:#008fbb;stop-opacity:1;" offset="0.90625"/><stop style="stop-color:#0090bc;stop-opacity:1;" offset="0.910156"/><stop style="stop-color:#0091bc;stop-opacity:1;" offset="0.914062"/><stop style="stop-color:#0092bc;stop-opacity:1;" offset="0.917969"/><stop style="stop-color:#0092bc;stop-opacity:1;" offset="0.921875"/><stop style="stop-color:#0093bc;stop-opacity:1;" offset="0.925781"/><stop style="stop-color:#0094bc;stop-opacity:1;" offset="0.929688"/><stop style="stop-color:#0095bd;stop-opacity:1;" offset="0.933594"/><stop style="stop-color:#0096bd;stop-opacity:1;" offset="0.9375"/><stop style="stop-color:#0096bd;stop-opacity:1;" offset="0.941406"/><stop style="stop-color:#0097bd;stop-opacity:1;" offset="0.945312"/><stop style="stop-color:#0098bd;stop-opacity:1;" offset="0.949219"/><stop style="stop-color:#0099bd;stop-opacity:1;" offset="0.953125"/><stop style="stop-color:#009abe;stop-opacity:1;" offset="0.957031"/><stop style="stop-color:#009abe;stop-opacity:1;" offset="0.960938"/><stop style="stop-color:#009bbe;stop-opacity:1;" offset="0.964844"/><stop style="stop-color:#009cbe;stop-opacity:1;" offset="0.96875"/><stop style="stop-color:#009dbe;stop-opacity:1;" offset="0.972656"/><stop style="stop-color:#009ebf;stop-opacity:1;" offset="0.976562"/><stop style="stop-color:#009ebf;stop-opacity:1;" offset="0.980469"/><stop style="stop-color:#009fbf;stop-opacity:1;" offset="0.984375"/><stop style="stop-color:#00a0bf;stop-opacity:1;" offset="0.988281"/><stop style="stop-color:#00a1bf;stop-opacity:1;" offset="0.992188"/><stop style="stop-color:#00a1bf;stop-opacity:1;" offset="0.996094"/><stop style="stop-color:#00a2c0;stop-opacity:1;" offset="1"/></linearGradient></defs><g id="36c65e45c7"><rect x="0" width="1536" y="0" height="1535.999932" style="fill:#ffffff;fill-opacity:1;stroke:none;"/><rect x="0" width="1536" y="0" height="1535.999932" style="fill:#ffffff;fill-opacity:1;stroke:none;"/><g clip-rule="nonzero" clip-path="url(#3aaf34bd8e)"><g clip-rule="nonzero" clip-path="url(#2658187899)"><path style=" stroke:none;fill-rule:nonzero;fill:url(#0e78c30f3b);" d="M 529.394531 409.789062 L 529.394531 854.804688 L 1006.394531 854.804688 L 1006.394531 409.789062 Z M 529.394531 409.789062 "/></g></g><g style="fill:#004aad;fill-opacity:1;"><g transform="translate(712.664892, 799.82683)"><path style="stroke:none" d="M -2.234375 -25.328125 C -2.160156 -25.398438 -2.03125 -25.460938 -1.84375 -25.515625 C -1.65625 -25.566406 -1.429688 -25.460938 -1.171875 -25.203125 L 0.109375 -23.921875 C 0.378906 -23.648438 0.488281 -23.421875 0.4375 -23.234375 C 0.382812 -23.046875 0.320312 -22.914062 0.25 -22.84375 L -5.75 -16.84375 C -6.125 -16.46875 -6.375 -16.144531 -6.5 -15.875 C -6.632812 -15.59375 -6.679688 -15.296875 -6.640625 -14.984375 C -6.585938 -14.703125 -6.429688 -14.367188 -6.171875 -13.984375 C -6.046875 -13.796875 -5.882812 -13.585938 -5.6875 -13.359375 C -5.5 -13.140625 -5.28125 -12.90625 -5.03125 -12.65625 L -1.140625 -8.765625 C -0.890625 -8.515625 -0.648438 -8.289062 -0.421875 -8.09375 C -0.191406 -7.894531 0.0195312 -7.726562 0.21875 -7.59375 C 0.394531 -7.457031 0.566406 -7.351562 0.734375 -7.28125 C 0.898438 -7.207031 1.054688 -7.160156 1.203125 -7.140625 C 1.515625 -7.097656 1.8125 -7.144531 2.09375 -7.28125 C 2.375 -7.394531 2.703125 -7.640625 3.078125 -8.015625 L 9.078125 -14.015625 C 9.148438 -14.085938 9.273438 -14.148438 9.453125 -14.203125 C 9.640625 -14.265625 9.863281 -14.164062 10.125 -13.90625 L 11.453125 -12.578125 C 11.703125 -12.328125 11.800781 -12.109375 11.75 -11.921875 C 11.695312 -11.734375 11.632812 -11.601562 11.5625 -11.53125 L 5.484375 -5.453125 C 4.753906 -4.722656 4.03125 -4.1875 3.3125 -3.84375 C 2.625 -3.507812 1.882812 -3.382812 1.09375 -3.46875 C 0.300781 -3.570312 -0.484375 -3.878906 -1.265625 -4.390625 C -1.679688 -4.640625 -2.101562 -4.945312 -2.53125 -5.3125 C -2.96875 -5.6875 -3.421875 -6.109375 -3.890625 -6.578125 L -7.203125 -9.890625 C -7.648438 -10.335938 -8.054688 -10.773438 -8.421875 -11.203125 C -8.796875 -11.640625 -9.109375 -12.066406 -9.359375 -12.484375 C -9.890625 -13.285156 -10.191406 -14.066406 -10.265625 -14.828125 C -10.367188 -15.578125 -10.25 -16.320312 -9.90625 -17.0625 C -9.570312 -17.789062 -9.039062 -18.519531 -8.3125 -19.25 Z M -2.234375 -25.328125 "/></g></g><g style="fill:#004aad;fill-opacity:1;"><g transform="translate(726.854797, 785.636925)"><path style="stroke:none" d="M 0.171875 -25.265625 C 0.890625 -25.191406 1.671875 -24.890625 2.515625 -24.359375 C 2.921875 -24.097656 3.34375 -23.785156 3.78125 -23.421875 C 4.21875 -23.054688 4.660156 -22.648438 5.109375 -22.203125 L 8.421875 -18.890625 C 8.890625 -18.421875 9.304688 -17.96875 9.671875 -17.53125 C 10.035156 -17.09375 10.34375 -16.675781 10.59375 -16.28125 C 11.113281 -15.445312 11.425781 -14.65625 11.53125 -13.90625 C 11.625 -13.125 11.492188 -12.378906 11.140625 -11.671875 C 10.804688 -10.960938 10.273438 -10.242188 9.546875 -9.515625 L 5.46875 -5.4375 C 4.726562 -4.695312 4.007812 -4.164062 3.3125 -3.84375 C 2.613281 -3.5 1.867188 -3.378906 1.078125 -3.484375 C 0.296875 -3.578125 -0.488281 -3.882812 -1.28125 -4.40625 C -1.6875 -4.644531 -2.101562 -4.945312 -2.53125 -5.3125 C -2.96875 -5.6875 -3.421875 -6.109375 -3.890625 -6.578125 L -7.203125 -9.890625 C -8.160156 -10.847656 -8.878906 -11.710938 -9.359375 -12.484375 C -9.878906 -13.273438 -10.179688 -14.054688 -10.265625 -14.828125 C -10.347656 -15.597656 -10.226562 -16.34375 -9.90625 -17.0625 C -9.570312 -17.789062 -9.046875 -18.515625 -8.328125 -19.234375 L -4.25 -23.3125 C -3.519531 -24.039062 -2.796875 -24.566406 -2.078125 -24.890625 C -1.347656 -25.222656 -0.597656 -25.347656 0.171875 -25.265625 Z M 2.34375 -20 C 2.101562 -20.238281 1.875 -20.457031 1.65625 -20.65625 C 1.4375 -20.851562 1.222656 -21.015625 1.015625 -21.140625 C 0.660156 -21.410156 0.316406 -21.566406 -0.015625 -21.609375 C -0.285156 -21.648438 -0.578125 -21.609375 -0.890625 -21.484375 C -1.035156 -21.398438 -1.1875 -21.300781 -1.34375 -21.1875 C -1.5 -21.070312 -1.664062 -20.925781 -1.84375 -20.75 L -5.765625 -16.828125 C -5.941406 -16.648438 -6.085938 -16.476562 -6.203125 -16.3125 C -6.328125 -16.15625 -6.425781 -16.007812 -6.5 -15.875 C -6.632812 -15.550781 -6.679688 -15.253906 -6.640625 -14.984375 C -6.617188 -14.835938 -6.566406 -14.675781 -6.484375 -14.5 C -6.398438 -14.320312 -6.289062 -14.144531 -6.15625 -13.96875 C -6.019531 -13.769531 -5.851562 -13.554688 -5.65625 -13.328125 C -5.46875 -13.109375 -5.253906 -12.878906 -5.015625 -12.640625 L -1.109375 -8.734375 C -0.867188 -8.492188 -0.632812 -8.273438 -0.40625 -8.078125 C -0.1875 -7.890625 0.0195312 -7.726562 0.21875 -7.59375 C 0.375 -7.476562 0.539062 -7.378906 0.71875 -7.296875 C 0.894531 -7.210938 1.054688 -7.160156 1.203125 -7.140625 C 1.492188 -7.078125 1.789062 -7.125 2.09375 -7.28125 C 2.375 -7.394531 2.695312 -7.632812 3.0625 -8 L 6.984375 -11.921875 C 7.347656 -12.285156 7.585938 -12.609375 7.703125 -12.890625 C 7.847656 -13.179688 7.890625 -13.472656 7.828125 -13.765625 C 7.804688 -14.054688 7.660156 -14.390625 7.390625 -14.765625 C 7.265625 -14.972656 7.101562 -15.1875 6.90625 -15.40625 C 6.707031 -15.625 6.488281 -15.851562 6.25 -16.09375 Z M 2.34375 -20 "/></g></g><g style="fill:#004aad;fill-opacity:1;"><g transform="translate(742.682643, 769.809078)"><path style="stroke:none" d="M -0.609375 -26.953125 C -0.546875 -27.015625 -0.421875 -27.078125 -0.234375 -27.140625 C -0.046875 -27.203125 0.179688 -27.097656 0.453125 -26.828125 L 11.5 -15.78125 C 12.3125 -14.96875 12.753906 -14.296875 12.828125 -13.765625 C 12.910156 -13.203125 12.707031 -12.675781 12.21875 -12.1875 L 11 -10.96875 C 10.78125 -10.75 10.578125 -10.578125 10.390625 -10.453125 C 10.285156 -10.390625 10.175781 -10.332031 10.0625 -10.28125 C 9.957031 -10.238281 9.851562 -10.207031 9.75 -10.1875 C 9.539062 -10.125 9.296875 -10.117188 9.015625 -10.171875 C 8.878906 -10.203125 8.726562 -10.234375 8.5625 -10.265625 C 8.394531 -10.296875 8.210938 -10.347656 8.015625 -10.421875 L -6.6875 -14.5 C -6.707031 -14.519531 -6.726562 -14.523438 -6.75 -14.515625 C -6.78125 -14.515625 -6.796875 -14.515625 -6.796875 -14.515625 L -6.875 -14.4375 C -6.875 -14.4375 -6.867188 -14.429688 -6.859375 -14.421875 C -6.847656 -14.410156 -6.84375 -14.40625 -6.84375 -14.40625 L 3.21875 -4.34375 C 3.46875 -4.09375 3.566406 -3.875 3.515625 -3.6875 C 3.460938 -3.5 3.398438 -3.367188 3.328125 -3.296875 L 1.84375 -1.8125 C 1.757812 -1.726562 1.625 -1.660156 1.4375 -1.609375 C 1.25 -1.554688 1.03125 -1.65625 0.78125 -1.90625 L -10.28125 -12.96875 C -11.09375 -13.78125 -11.535156 -14.453125 -11.609375 -14.984375 C -11.679688 -15.554688 -11.484375 -16.078125 -11.015625 -16.546875 L -9.75 -17.8125 C -9.632812 -17.925781 -9.519531 -18.023438 -9.40625 -18.109375 C -9.300781 -18.203125 -9.207031 -18.289062 -9.125 -18.375 C -8.90625 -18.507812 -8.6875 -18.59375 -8.46875 -18.625 C -8.269531 -18.65625 -8.019531 -18.644531 -7.71875 -18.59375 C -7.582031 -18.5625 -7.429688 -18.523438 -7.265625 -18.484375 C -7.109375 -18.453125 -6.9375 -18.40625 -6.75 -18.34375 L 7.921875 -14.234375 C 7.972656 -14.222656 8.007812 -14.226562 8.03125 -14.25 L 8.109375 -14.328125 C 8.097656 -14.335938 8.09375 -14.34375 8.09375 -14.34375 C 8.09375 -14.34375 8.085938 -14.347656 8.078125 -14.359375 L -1.96875 -24.40625 C -2.238281 -24.675781 -2.347656 -24.898438 -2.296875 -25.078125 C -2.242188 -25.253906 -2.175781 -25.382812 -2.09375 -25.46875 Z M -0.609375 -26.953125 "/></g></g><g style="fill:#004aad;fill-opacity:1;"><g transform="translate(758.493771, 753.99795)"><path style="stroke:none" d="M 1.1875 -17.625 C 2.0625 -18.5 3.035156 -18.859375 4.109375 -18.703125 C 5.140625 -18.523438 6.195312 -17.894531 7.28125 -16.8125 L 8.75 -15.34375 C 9.707031 -14.382812 10.28125 -13.382812 10.46875 -12.34375 C 10.664062 -11.289062 10.300781 -10.300781 9.375 -9.375 L 1.828125 -1.828125 C 1.753906 -1.753906 1.625 -1.6875 1.4375 -1.625 C 1.257812 -1.570312 1.046875 -1.671875 0.796875 -1.921875 L -0.546875 -3.265625 C -0.796875 -3.515625 -0.890625 -3.726562 -0.828125 -3.90625 C -0.773438 -4.09375 -0.710938 -4.222656 -0.640625 -4.296875 L 6.5 -11.4375 C 6.644531 -11.582031 6.722656 -11.710938 6.734375 -11.828125 C 6.742188 -11.941406 6.738281 -12.039062 6.71875 -12.125 C 6.664062 -12.382812 6.488281 -12.664062 6.1875 -12.96875 L 4.75 -14.40625 C 4.332031 -14.820312 4.007812 -15.015625 3.78125 -14.984375 C 3.550781 -14.953125 3.375 -14.875 3.25 -14.75 L -1.765625 -9.734375 C -2.117188 -9.378906 -2.519531 -9.066406 -2.96875 -8.796875 C -3.414062 -8.523438 -3.945312 -8.4375 -4.5625 -8.53125 C -5.59375 -8.707031 -6.695312 -9.382812 -7.875 -10.5625 L -9.140625 -11.828125 C -10.117188 -12.804688 -10.691406 -13.804688 -10.859375 -14.828125 C -11.046875 -15.890625 -10.679688 -16.878906 -9.765625 -17.796875 L -2.5625 -25 C -2.5 -25.0625 -2.375 -25.125 -2.1875 -25.1875 C -2 -25.25 -1.773438 -25.148438 -1.515625 -24.890625 L -0.171875 -23.546875 C 0.078125 -23.296875 0.171875 -23.078125 0.109375 -22.890625 C 0.046875 -22.703125 -0.015625 -22.578125 -0.078125 -22.515625 L -6.890625 -15.703125 C -7.023438 -15.566406 -7.101562 -15.445312 -7.125 -15.34375 C -7.144531 -15.238281 -7.140625 -15.140625 -7.109375 -15.046875 C -7.023438 -14.773438 -6.84375 -14.5 -6.5625 -14.21875 L -5.3125 -12.96875 C -4.90625 -12.5625 -4.585938 -12.367188 -4.359375 -12.390625 C -4.128906 -12.410156 -3.953125 -12.484375 -3.828125 -12.609375 Z M 1.1875 -17.625 "/></g></g><g style="fill:#004aad;fill-opacity:1;"><g transform="translate(772.717105, 739.774616)"><path style="stroke:none" d="M -0.890625 -26.671875 C -0.816406 -26.742188 -0.6875 -26.804688 -0.5 -26.859375 C -0.320312 -26.921875 -0.101562 -26.820312 0.15625 -26.5625 L 8.125 -18.59375 C 8.59375 -18.125 9.007812 -17.671875 9.375 -17.234375 C 9.75 -16.804688 10.054688 -16.390625 10.296875 -15.984375 C 10.835938 -15.128906 11.144531 -14.34375 11.21875 -13.625 C 11.320312 -12.875 11.195312 -12.125 10.84375 -11.375 C 10.519531 -10.695312 9.976562 -9.976562 9.21875 -9.21875 L 5.46875 -5.46875 C 4.707031 -4.707031 3.988281 -4.164062 3.3125 -3.84375 C 2.945312 -3.6875 2.570312 -3.570312 2.1875 -3.5 C 1.8125 -3.4375 1.441406 -3.429688 1.078125 -3.484375 C 0.316406 -3.554688 -0.46875 -3.863281 -1.28125 -4.40625 C -1.6875 -4.644531 -2.101562 -4.945312 -2.53125 -5.3125 C -2.96875 -5.6875 -3.421875 -6.109375 -3.890625 -6.578125 L -11.859375 -14.546875 C -12.117188 -14.804688 -12.21875 -15.023438 -12.15625 -15.203125 C -12.101562 -15.390625 -12.035156 -15.523438 -11.953125 -15.609375 L -10.4375 -17.125 C -10.363281 -17.195312 -10.234375 -17.257812 -10.046875 -17.3125 C -9.867188 -17.375 -9.648438 -17.273438 -9.390625 -17.015625 L -1.140625 -8.765625 C -0.898438 -8.523438 -0.660156 -8.300781 -0.421875 -8.09375 C -0.191406 -7.894531 0.0078125 -7.738281 0.1875 -7.625 C 0.550781 -7.382812 0.890625 -7.222656 1.203125 -7.140625 C 1.515625 -7.097656 1.8125 -7.144531 2.09375 -7.28125 C 2.226562 -7.351562 2.378906 -7.445312 2.546875 -7.5625 C 2.722656 -7.6875 2.898438 -7.835938 3.078125 -8.015625 L 6.6875 -11.625 C 6.863281 -11.800781 7.007812 -11.972656 7.125 -12.140625 C 7.25 -12.316406 7.351562 -12.476562 7.4375 -12.625 C 7.5625 -12.894531 7.601562 -13.1875 7.5625 -13.5 C 7.539062 -13.644531 7.488281 -13.804688 7.40625 -13.984375 C 7.320312 -14.160156 7.210938 -14.335938 7.078125 -14.515625 C 6.953125 -14.679688 6.785156 -14.878906 6.578125 -15.109375 C 6.378906 -15.347656 6.160156 -15.585938 5.921875 -15.828125 L -2.328125 -24.078125 C -2.585938 -24.335938 -2.6875 -24.554688 -2.625 -24.734375 C -2.570312 -24.921875 -2.507812 -25.050781 -2.4375 -25.125 Z M -0.890625 -26.671875 "/></g></g><g style="fill:#004aad;fill-opacity:1;"><g transform="translate(788.2441, 724.247621)"><path style="stroke:none" d="M 8.515625 -13.453125 C 8.597656 -13.535156 8.726562 -13.601562 8.90625 -13.65625 C 9.082031 -13.707031 9.300781 -13.601562 9.5625 -13.34375 L 10.890625 -12.015625 C 11.140625 -11.765625 11.238281 -11.546875 11.1875 -11.359375 C 11.144531 -11.179688 11.082031 -11.050781 11 -10.96875 L 5.484375 -5.453125 C 4.742188 -4.710938 4.023438 -4.179688 3.328125 -3.859375 C 2.628906 -3.515625 1.878906 -3.390625 1.078125 -3.484375 C 0.359375 -3.554688 -0.425781 -3.863281 -1.28125 -4.40625 C -2.101562 -4.9375 -2.972656 -5.660156 -3.890625 -6.578125 L -11.84375 -14.53125 C -12.113281 -14.800781 -12.21875 -15.023438 -12.15625 -15.203125 C -12.101562 -15.390625 -12.035156 -15.523438 -11.953125 -15.609375 L -10.421875 -17.140625 C -10.359375 -17.203125 -10.234375 -17.265625 -10.046875 -17.328125 C -9.859375 -17.390625 -9.628906 -17.285156 -9.359375 -17.015625 L -1.125 -8.78125 C -0.875 -8.53125 -0.632812 -8.300781 -0.40625 -8.09375 C -0.1875 -7.894531 0.0195312 -7.726562 0.21875 -7.59375 C 0.5625 -7.351562 0.898438 -7.210938 1.234375 -7.171875 C 1.515625 -7.097656 1.800781 -7.132812 2.09375 -7.28125 C 2.394531 -7.414062 2.722656 -7.660156 3.078125 -8.015625 Z M 8.515625 -13.453125 "/></g></g><g style="fill:#004aad;fill-opacity:1;"><g transform="translate(801.865739, 710.625982)"><path style="stroke:none" d="M -0.890625 -26.671875 C -0.816406 -26.742188 -0.6875 -26.8125 -0.5 -26.875 C -0.3125 -26.9375 -0.0859375 -26.835938 0.171875 -26.578125 L 1.46875 -25.28125 C 1.75 -25 1.859375 -24.765625 1.796875 -24.578125 C 1.734375 -24.390625 1.664062 -24.257812 1.59375 -24.1875 L -2.703125 -19.890625 L 8.03125 -9.15625 C 8.28125 -8.90625 8.375 -8.6875 8.3125 -8.5 C 8.257812 -8.320312 8.195312 -8.195312 8.125 -8.125 L 6.578125 -6.578125 C 6.515625 -6.515625 6.390625 -6.453125 6.203125 -6.390625 C 6.023438 -6.335938 5.8125 -6.4375 5.5625 -6.6875 L -5.171875 -17.421875 L -9.46875 -13.125 C -9.550781 -13.039062 -9.679688 -12.96875 -9.859375 -12.90625 C -10.046875 -12.851562 -10.28125 -12.96875 -10.5625 -13.25 L -11.859375 -14.546875 C -12.117188 -14.804688 -12.21875 -15.023438 -12.15625 -15.203125 C -12.101562 -15.390625 -12.035156 -15.523438 -11.953125 -15.609375 Z M -0.890625 -26.671875 "/></g></g><g style="fill:#004aad;fill-opacity:1;"><g transform="translate(817.409452, 695.082269)"><path style="stroke:none" d="M -1.921875 -22.515625 L 14.375 -15.625 C 14.59375 -15.53125 14.738281 -15.414062 14.8125 -15.28125 C 14.84375 -15.226562 14.863281 -15.144531 14.875 -15.03125 C 14.882812 -14.914062 14.820312 -14.789062 14.6875 -14.65625 L 12.90625 -12.875 C 12.675781 -12.644531 12.390625 -12.609375 12.046875 -12.765625 L -2.4375 -18.9375 C -2.476562 -18.957031 -2.5 -18.96875 -2.5 -18.96875 L -2.5625 -18.90625 C -2.5625 -18.90625 -2.5625 -18.898438 -2.5625 -18.890625 C -2.5625 -18.878906 -2.554688 -18.859375 -2.546875 -18.828125 L 0.734375 -11.265625 L 2.8125 -13.34375 C 3.050781 -13.582031 3.328125 -13.628906 3.640625 -13.484375 L 5.703125 -12.609375 C 5.960938 -12.472656 6.101562 -12.289062 6.125 -12.0625 C 6.1875 -11.8125 6.117188 -11.585938 5.921875 -11.390625 L 2.265625 -7.734375 L 3.71875 -4.375 C 3.851562 -4.050781 3.8125 -3.78125 3.59375 -3.5625 L 1.75 -1.71875 C 1.613281 -1.582031 1.488281 -1.519531 1.375 -1.53125 C 1.269531 -1.550781 1.191406 -1.578125 1.140625 -1.609375 C 1.003906 -1.679688 0.882812 -1.820312 0.78125 -2.03125 L -6.15625 -18.28125 C -6.53125 -19.09375 -6.6875 -19.75 -6.625 -20.25 C -6.625 -20.289062 -6.617188 -20.351562 -6.609375 -20.4375 C -6.597656 -20.519531 -6.582031 -20.59375 -6.5625 -20.65625 C -6.445312 -21.226562 -6.175781 -21.726562 -5.75 -22.15625 C -5.289062 -22.613281 -4.738281 -22.890625 -4.09375 -22.984375 C -3.445312 -23.078125 -2.835938 -22.972656 -2.265625 -22.671875 C -2.210938 -22.660156 -2.15625 -22.640625 -2.09375 -22.609375 C -2.03125 -22.578125 -1.972656 -22.546875 -1.921875 -22.515625 Z M -1.921875 -22.515625 "/></g></g><g style="fill:#004aad;fill-opacity:1;"><g transform="translate(834.657956, 677.833765)"><path style="stroke:none" d="M -0.609375 -26.953125 C -0.546875 -27.015625 -0.421875 -27.078125 -0.234375 -27.140625 C -0.046875 -27.203125 0.179688 -27.097656 0.453125 -26.828125 L 11.5 -15.78125 C 12.3125 -14.96875 12.753906 -14.296875 12.828125 -13.765625 C 12.910156 -13.203125 12.707031 -12.675781 12.21875 -12.1875 L 11 -10.96875 C 10.78125 -10.75 10.578125 -10.578125 10.390625 -10.453125 C 10.285156 -10.390625 10.175781 -10.332031 10.0625 -10.28125 C 9.957031 -10.238281 9.851562 -10.207031 9.75 -10.1875 C 9.539062 -10.125 9.296875 -10.117188 9.015625 -10.171875 C 8.878906 -10.203125 8.726562 -10.234375 8.5625 -10.265625 C 8.394531 -10.296875 8.210938 -10.347656 8.015625 -10.421875 L -6.6875 -14.5 C -6.707031 -14.519531 -6.726562 -14.523438 -6.75 -14.515625 C -6.78125 -14.515625 -6.796875 -14.515625 -6.796875 -14.515625 L -6.875 -14.4375 C -6.875 -14.4375 -6.867188 -14.429688 -6.859375 -14.421875 C -6.847656 -14.410156 -6.84375 -14.40625 -6.84375 -14.40625 L 3.21875 -4.34375 C 3.46875 -4.09375 3.566406 -3.875 3.515625 -3.6875 C 3.460938 -3.5 3.398438 -3.367188 3.328125 -3.296875 L 1.84375 -1.8125 C 1.757812 -1.726562 1.625 -1.660156 1.4375 -1.609375 C 1.25 -1.554688 1.03125 -1.65625 0.78125 -1.90625 L -10.28125 -12.96875 C -11.09375 -13.78125 -11.535156 -14.453125 -11.609375 -14.984375 C -11.679688 -15.554688 -11.484375 -16.078125 -11.015625 -16.546875 L -9.75 -17.8125 C -9.632812 -17.925781 -9.519531 -18.023438 -9.40625 -18.109375 C -9.300781 -18.203125 -9.207031 -18.289062 -9.125 -18.375 C -8.90625 -18.507812 -8.6875 -18.59375 -8.46875 -18.625 C -8.269531 -18.65625 -8.019531 -18.644531 -7.71875 -18.59375 C -7.582031 -18.5625 -7.429688 -18.523438 -7.265625 -18.484375 C -7.109375 -18.453125 -6.9375 -18.40625 -6.75 -18.34375 L 7.921875 -14.234375 C 7.972656 -14.222656 8.007812 -14.226562 8.03125 -14.25 L 8.109375 -14.328125 C 8.097656 -14.335938 8.09375 -14.34375 8.09375 -14.34375 C 8.09375 -14.34375 8.085938 -14.347656 8.078125 -14.359375 L -1.96875 -24.40625 C -2.238281 -24.675781 -2.347656 -24.898438 -2.296875 -25.078125 C -2.242188 -25.253906 -2.175781 -25.382812 -2.09375 -25.46875 Z M -0.609375 -26.953125 "/></g></g><g style="fill:#004aad;fill-opacity:1;"><g transform="translate(850.469084, 662.022637)"><path style="stroke:none" d="M -0.890625 -26.671875 C -0.816406 -26.742188 -0.6875 -26.8125 -0.5 -26.875 C -0.3125 -26.9375 -0.0859375 -26.835938 0.171875 -26.578125 L 1.46875 -25.28125 C 1.75 -25 1.859375 -24.765625 1.796875 -24.578125 C 1.734375 -24.390625 1.664062 -24.257812 1.59375 -24.1875 L -2.703125 -19.890625 L 8.03125 -9.15625 C 8.28125 -8.90625 8.375 -8.6875 8.3125 -8.5 C 8.257812 -8.320312 8.195312 -8.195312 8.125 -8.125 L 6.578125 -6.578125 C 6.515625 -6.515625 6.390625 -6.453125 6.203125 -6.390625 C 6.023438 -6.335938 5.8125 -6.4375 5.5625 -6.6875 L -5.171875 -17.421875 L -9.46875 -13.125 C -9.550781 -13.039062 -9.679688 -12.96875 -9.859375 -12.90625 C -10.046875 -12.851562 -10.28125 -12.96875 -10.5625 -13.25 L -11.859375 -14.546875 C -12.117188 -14.804688 -12.21875 -15.023438 -12.15625 -15.203125 C -12.101562 -15.390625 -12.035156 -15.523438 -11.953125 -15.609375 Z M -0.890625 -26.671875 "/></g></g><g style="fill:#004aad;fill-opacity:1;"><g transform="translate(866.012797, 646.478924)"><path style="stroke:none" d="M 1.1875 -17.625 C 2.0625 -18.5 3.035156 -18.859375 4.109375 -18.703125 C 5.140625 -18.523438 6.195312 -17.894531 7.28125 -16.8125 L 8.75 -15.34375 C 9.707031 -14.382812 10.28125 -13.382812 10.46875 -12.34375 C 10.664062 -11.289062 10.300781 -10.300781 9.375 -9.375 L 1.828125 -1.828125 C 1.753906 -1.753906 1.625 -1.6875 1.4375 -1.625 C 1.257812 -1.570312 1.046875 -1.671875 0.796875 -1.921875 L -0.546875 -3.265625 C -0.796875 -3.515625 -0.890625 -3.726562 -0.828125 -3.90625 C -0.773438 -4.09375 -0.710938 -4.222656 -0.640625 -4.296875 L 6.5 -11.4375 C 6.644531 -11.582031 6.722656 -11.710938 6.734375 -11.828125 C 6.742188 -11.941406 6.738281 -12.039062 6.71875 -12.125 C 6.664062 -12.382812 6.488281 -12.664062 6.1875 -12.96875 L 4.75 -14.40625 C 4.332031 -14.820312 4.007812 -15.015625 3.78125 -14.984375 C 3.550781 -14.953125 3.375 -14.875 3.25 -14.75 L -1.765625 -9.734375 C -2.117188 -9.378906 -2.519531 -9.066406 -2.96875 -8.796875 C -3.414062 -8.523438 -3.945312 -8.4375 -4.5625 -8.53125 C -5.59375 -8.707031 -6.695312 -9.382812 -7.875 -10.5625 L -9.140625 -11.828125 C -10.117188 -12.804688 -10.691406 -13.804688 -10.859375 -14.828125 C -11.046875 -15.890625 -10.679688 -16.878906 -9.765625 -17.796875 L -2.5625 -25 C -2.5 -25.0625 -2.375 -25.125 -2.1875 -25.1875 C -2 -25.25 -1.773438 -25.148438 -1.515625 -24.890625 L -0.171875 -23.546875 C 0.078125 -23.296875 0.171875 -23.078125 0.109375 -22.890625 C 0.046875 -22.703125 -0.015625 -22.578125 -0.078125 -22.515625 L -6.890625 -15.703125 C -7.023438 -15.566406 -7.101562 -15.445312 -7.125 -15.34375 C -7.144531 -15.238281 -7.140625 -15.140625 -7.109375 -15.046875 C -7.023438 -14.773438 -6.84375 -14.5 -6.5625 -14.21875 L -5.3125 -12.96875 C -4.90625 -12.5625 -4.585938 -12.367188 -4.359375 -12.390625 C -4.128906 -12.410156 -3.953125 -12.484375 -3.828125 -12.609375 Z M 1.1875 -17.625 "/></g></g><g style="fill:#ffffff;fill-opacity:1;"><g transform="translate(674.529901, 737.036713)"><path style="stroke:none" d="M -2.6875 -31.4375 L 20.03125 -21.8125 C 20.34375 -21.6875 20.554688 -21.523438 20.671875 -21.328125 C 20.722656 -21.253906 20.753906 -21.140625 20.765625 -20.984375 C 20.773438 -20.828125 20.6875 -20.65625 20.5 -20.46875 L 18 -17.96875 C 17.675781 -17.644531 17.285156 -17.585938 16.828125 -17.796875 L -3.421875 -26.453125 C -3.460938 -26.472656 -3.484375 -26.484375 -3.484375 -26.484375 L -3.578125 -26.390625 C -3.578125 -26.390625 -3.570312 -26.378906 -3.5625 -26.359375 C -3.5625 -26.347656 -3.554688 -26.328125 -3.546875 -26.296875 L 1.03125 -15.71875 L 3.921875 -18.609375 C 4.242188 -18.929688 4.617188 -19.003906 5.046875 -18.828125 L 7.96875 -17.59375 C 8.320312 -17.40625 8.519531 -17.144531 8.5625 -16.8125 C 8.65625 -16.46875 8.566406 -16.160156 8.296875 -15.890625 L 3.171875 -10.765625 L 5.171875 -6.109375 C 5.367188 -5.660156 5.316406 -5.285156 5.015625 -4.984375 L 2.453125 -2.421875 C 2.253906 -2.222656 2.078125 -2.128906 1.921875 -2.140625 C 1.773438 -2.160156 1.660156 -2.191406 1.578125 -2.234375 C 1.390625 -2.335938 1.21875 -2.539062 1.0625 -2.84375 L -8.59375 -25.53125 C -9.101562 -26.664062 -9.328125 -27.578125 -9.265625 -28.265625 C -9.242188 -28.328125 -9.226562 -28.414062 -9.21875 -28.53125 C -9.207031 -28.644531 -9.179688 -28.742188 -9.140625 -28.828125 C -9.003906 -29.628906 -8.632812 -30.332031 -8.03125 -30.9375 C -7.382812 -31.582031 -6.609375 -31.960938 -5.703125 -32.078125 C -4.804688 -32.203125 -3.960938 -32.054688 -3.171875 -31.640625 C -3.085938 -31.617188 -3 -31.585938 -2.90625 -31.546875 C -2.820312 -31.515625 -2.75 -31.476562 -2.6875 -31.4375 Z M -2.6875 -31.4375 "/></g></g><g style="fill:#ffffff;fill-opacity:1;"><g transform="translate(698.602601, 712.964013)"><path style="stroke:none" d="M 4.125 -31.4375 L 4.265625 -31.296875 C 4.253906 -31.304688 4.242188 -31.316406 4.234375 -31.328125 C 4.222656 -31.335938 4.210938 -31.347656 4.203125 -31.359375 C 4.191406 -31.367188 4.179688 -31.378906 4.171875 -31.390625 C 4.160156 -31.398438 4.144531 -31.414062 4.125 -31.4375 Z M 17.21875 -19.21875 C 17.4375 -19.1875 17.65625 -19.03125 17.875 -18.75 C 18.132812 -18.40625 18.109375 -18.078125 17.796875 -17.765625 L 15.234375 -15.203125 C 15.035156 -15.003906 14.828125 -14.890625 14.609375 -14.859375 C 14.523438 -14.835938 14.429688 -14.835938 14.328125 -14.859375 C 14.234375 -14.890625 14.132812 -14.90625 14.03125 -14.90625 L 2.296875 -18.171875 L -2.609375 -13.265625 L 4.53125 -6.125 C 4.894531 -5.757812 5.035156 -5.445312 4.953125 -5.1875 C 4.878906 -4.9375 4.785156 -4.753906 4.671875 -4.640625 L 2.5625 -2.53125 C 2.445312 -2.414062 2.257812 -2.316406 2 -2.234375 C 1.738281 -2.148438 1.425781 -2.289062 1.0625 -2.65625 L -8.734375 -12.453125 C -9.085938 -12.804688 -9.222656 -13.113281 -9.140625 -13.375 C -9.054688 -13.632812 -8.957031 -13.820312 -8.84375 -13.9375 L 1.296875 -24.078125 C 1.890625 -24.671875 2.132812 -25.257812 2.03125 -25.84375 C 1.9375 -26.4375 1.503906 -27.117188 0.734375 -27.890625 C -0.046875 -28.671875 -0.726562 -29.101562 -1.3125 -29.1875 C -1.90625 -29.300781 -2.5 -29.0625 -3.09375 -28.46875 L -13.234375 -18.328125 C -13.347656 -18.210938 -13.53125 -18.109375 -13.78125 -18.015625 C -14.039062 -17.929688 -14.351562 -18.070312 -14.71875 -18.4375 L -16.546875 -20.265625 C -16.921875 -20.640625 -17.0625 -20.953125 -16.96875 -21.203125 C -16.882812 -21.460938 -16.785156 -21.648438 -16.671875 -21.765625 L -5.921875 -32.515625 C -4.316406 -34.117188 -2.671875 -34.773438 -0.984375 -34.484375 C 0.648438 -34.179688 2.378906 -33.140625 4.203125 -31.359375 C 5.984375 -29.535156 7.023438 -27.804688 7.328125 -26.171875 C 7.546875 -24.765625 7.148438 -23.421875 6.140625 -22.140625 Z M 17.21875 -19.21875 "/></g></g><g style="fill:#ffffff;fill-opacity:1;"><g transform="translate(719.969449, 691.597165)"><path style="stroke:none" d="M 5.046875 -21.046875 L 16.078125 -18.078125 C 16.273438 -18.066406 16.484375 -17.921875 16.703125 -17.640625 C 16.992188 -17.285156 16.976562 -16.945312 16.65625 -16.625 L 14.140625 -14.109375 C 13.898438 -13.867188 13.6875 -13.75 13.5 -13.75 C 13.332031 -13.726562 13.144531 -13.75 12.9375 -13.8125 L 2.890625 -16.578125 C 2.179688 -16.785156 1.617188 -16.828125 1.203125 -16.703125 C 0.785156 -16.597656 0.289062 -16.257812 -0.28125 -15.6875 L -2.640625 -13.328125 L 4.546875 -6.140625 C 4.910156 -5.773438 5.050781 -5.460938 4.96875 -5.203125 C 4.882812 -4.941406 4.800781 -4.769531 4.71875 -4.6875 L 2.5625 -2.53125 C 2.46875 -2.4375 2.285156 -2.34375 2.015625 -2.25 C 1.742188 -2.15625 1.425781 -2.289062 1.0625 -2.65625 L -16.546875 -20.265625 C -16.921875 -20.640625 -17.054688 -20.957031 -16.953125 -21.21875 C -16.859375 -21.488281 -16.765625 -21.671875 -16.671875 -21.765625 L -14.515625 -23.921875 C -14.429688 -24.003906 -14.257812 -24.085938 -14 -24.171875 C -13.75 -24.265625 -13.4375 -24.125 -13.0625 -23.75 L -6.09375 -16.78125 L -3.953125 -18.921875 C -3.796875 -19.078125 -3.65625 -19.21875 -3.53125 -19.34375 C -3.414062 -19.476562 -3.320312 -19.601562 -3.25 -19.71875 C -3.082031 -19.925781 -2.960938 -20.140625 -2.890625 -20.359375 C -2.828125 -20.566406 -2.804688 -20.796875 -2.828125 -21.046875 C -2.859375 -21.179688 -2.882812 -21.332031 -2.90625 -21.5 C -2.9375 -21.675781 -2.976562 -21.851562 -3.03125 -22.03125 L -5.75 -31.78125 C -5.8125 -31.96875 -5.832031 -32.164062 -5.8125 -32.375 C -5.8125 -32.539062 -5.6875 -32.75 -5.4375 -33 L -3.125 -35.3125 C -2.84375 -35.59375 -2.53125 -35.644531 -2.1875 -35.46875 C -1.957031 -35.300781 -1.796875 -35.097656 -1.703125 -34.859375 L 1.21875 -24.21875 C 1.363281 -23.59375 1.503906 -23.035156 1.640625 -22.546875 C 1.671875 -22.347656 1.695312 -22.160156 1.71875 -21.984375 C 1.75 -21.816406 1.773438 -21.648438 1.796875 -21.484375 C 2.242188 -21.515625 2.738281 -21.484375 3.28125 -21.390625 C 3.832031 -21.304688 4.421875 -21.191406 5.046875 -21.046875 Z M 5.046875 -21.046875 "/></g></g><g style="fill:#ffffff;fill-opacity:1;"><g transform="translate(740.199675, 671.366939)"><path style="stroke:none" d=""/></g></g><g style="fill:#ffffff;fill-opacity:1;"><g transform="translate(823.519762, 828.592651)"><path style="stroke:none" d="M 2.25 -21.625 L 2.34375 -21.53125 C 2.332031 -21.539062 2.320312 -21.546875 2.3125 -21.546875 C 2.3125 -21.554688 2.304688 -21.566406 2.296875 -21.578125 C 2.285156 -21.585938 2.273438 -21.59375 2.265625 -21.59375 C 2.265625 -21.601562 2.257812 -21.613281 2.25 -21.625 Z M 11.46875 -13.515625 C 11.601562 -13.484375 11.75 -13.375 11.90625 -13.1875 C 12.09375 -12.945312 12.082031 -12.71875 11.875 -12.5 L 10.171875 -10.703125 C 10.035156 -10.554688 9.894531 -10.46875 9.75 -10.4375 C 9.695312 -10.425781 9.632812 -10.425781 9.5625 -10.4375 C 9.488281 -10.457031 9.414062 -10.472656 9.34375 -10.484375 L 1.25 -12.515625 L -2.046875 -9.046875 L 2.984375 -4.28125 C 3.234375 -4.039062 3.335938 -3.832031 3.296875 -3.65625 C 3.253906 -3.476562 3.195312 -3.347656 3.125 -3.265625 L 1.71875 -1.78125 C 1.644531 -1.695312 1.515625 -1.625 1.328125 -1.5625 C 1.148438 -1.507812 0.9375 -1.601562 0.6875 -1.84375 L -6.21875 -8.390625 C -6.46875 -8.617188 -6.5625 -8.820312 -6.5 -9 C -6.445312 -9.175781 -6.382812 -9.304688 -6.3125 -9.390625 L 0.453125 -16.53125 C 0.847656 -16.945312 1.003906 -17.351562 0.921875 -17.75 C 0.835938 -18.144531 0.523438 -18.601562 -0.015625 -19.125 C -0.566406 -19.644531 -1.046875 -19.9375 -1.453125 -20 C -1.847656 -20.0625 -2.242188 -19.882812 -2.640625 -19.46875 L -9.40625 -12.328125 C -9.476562 -12.242188 -9.597656 -12.164062 -9.765625 -12.09375 C -9.941406 -12.03125 -10.160156 -12.125 -10.421875 -12.375 L -11.71875 -13.59375 C -11.976562 -13.84375 -12.082031 -14.054688 -12.03125 -14.234375 C -11.976562 -14.410156 -11.914062 -14.539062 -11.84375 -14.625 L -4.671875 -22.1875 C -3.597656 -23.320312 -2.476562 -23.800781 -1.3125 -23.625 C -0.175781 -23.457031 1.023438 -22.773438 2.296875 -21.578125 C 3.566406 -20.367188 4.3125 -19.203125 4.53125 -18.078125 C 4.71875 -17.128906 4.472656 -16.203125 3.796875 -15.296875 Z M 11.46875 -13.515625 "/></g></g><g style="fill:#ffffff;fill-opacity:1;"><g transform="translate(838.690094, 812.587365)"><path style="stroke:none" d="M 7.671875 -13.96875 C 7.742188 -14.050781 7.867188 -14.125 8.046875 -14.1875 C 8.222656 -14.25 8.4375 -14.160156 8.6875 -13.921875 L 10.484375 -12.21875 C 10.742188 -11.976562 10.84375 -11.769531 10.78125 -11.59375 C 10.726562 -11.414062 10.664062 -11.285156 10.59375 -11.203125 L 5.0625 -5.375 C 4.71875 -5.007812 4.378906 -4.691406 4.046875 -4.421875 C 3.710938 -4.160156 3.375 -3.953125 3.03125 -3.796875 C 2.332031 -3.429688 1.628906 -3.289062 0.921875 -3.375 C 0.179688 -3.445312 -0.578125 -3.722656 -1.359375 -4.203125 C -1.679688 -4.398438 -2.023438 -4.632812 -2.390625 -4.90625 C -2.765625 -5.175781 -3.144531 -5.488281 -3.53125 -5.84375 L -3.609375 -5.921875 L -5.640625 -7.90625 C -5.734375 -8.050781 -5.816406 -8.25 -5.890625 -8.5 C -6.085938 -9.132812 -5.972656 -9.722656 -5.546875 -10.265625 L 2.5 -18.75 C 2.5625 -18.820312 2.675781 -18.890625 2.84375 -18.953125 C 3.019531 -19.015625 3.234375 -18.929688 3.484375 -18.703125 L 4.796875 -17.46875 C 5.046875 -17.226562 5.144531 -17.015625 5.09375 -16.828125 C 5.039062 -16.648438 4.984375 -16.523438 4.921875 -16.453125 L -2.046875 -9.109375 C -2.046875 -9.109375 -1.988281 -9.046875 -1.875 -8.921875 C -1.757812 -8.804688 -1.625 -8.671875 -1.46875 -8.515625 C -1.320312 -8.367188 -1.1875 -8.238281 -1.0625 -8.125 C -0.945312 -8.007812 -0.890625 -7.953125 -0.890625 -7.953125 C -0.828125 -7.921875 -0.769531 -7.878906 -0.71875 -7.828125 C -0.675781 -7.785156 -0.628906 -7.75 -0.578125 -7.71875 C -0.234375 -7.46875 0.101562 -7.328125 0.4375 -7.296875 C 0.71875 -7.273438 0.988281 -7.328125 1.25 -7.453125 C 1.40625 -7.535156 1.554688 -7.632812 1.703125 -7.75 C 1.859375 -7.875 2.019531 -8.019531 2.1875 -8.1875 Z M -5.296875 -10.234375 Z M -2.953125 -24.0625 C -2.890625 -24.132812 -2.765625 -24.195312 -2.578125 -24.25 C -2.398438 -24.3125 -2.1875 -24.222656 -1.9375 -23.984375 L -0.640625 -22.765625 C -0.378906 -22.523438 -0.273438 -22.3125 -0.328125 -22.125 C -0.378906 -21.945312 -0.4375 -21.820312 -0.5 -21.75 L -9.46875 -12.3125 C -9.539062 -12.25 -9.65625 -12.1875 -9.8125 -12.125 C -9.976562 -12.070312 -10.191406 -12.164062 -10.453125 -12.40625 L -11.734375 -13.625 C -11.992188 -13.863281 -12.101562 -14.070312 -12.0625 -14.25 C -12.03125 -14.425781 -11.976562 -14.546875 -11.90625 -14.609375 Z M -2.953125 -24.0625 "/></g></g><g style="fill:#ffffff;fill-opacity:1;"><g transform="translate(852.676719, 797.830935)"><path style="stroke:none" d="M -1.546875 -25.5 C -1.472656 -25.570312 -1.347656 -25.640625 -1.171875 -25.703125 C -0.992188 -25.765625 -0.78125 -25.679688 -0.53125 -25.453125 L 0.75 -24.234375 C 1.03125 -23.960938 1.140625 -23.738281 1.078125 -23.5625 C 1.023438 -23.394531 0.960938 -23.273438 0.890625 -23.203125 L -3.109375 -18.984375 L 7.4375 -8.984375 C 7.6875 -8.742188 7.785156 -8.535156 7.734375 -8.359375 C 7.691406 -8.179688 7.632812 -8.054688 7.5625 -7.984375 L 6.140625 -6.46875 C 6.078125 -6.40625 5.957031 -6.34375 5.78125 -6.28125 C 5.601562 -6.21875 5.390625 -6.304688 5.140625 -6.546875 L -5.40625 -16.546875 L -9.40625 -12.328125 C -9.476562 -12.242188 -9.597656 -12.164062 -9.765625 -12.09375 C -9.941406 -12.03125 -10.171875 -12.132812 -10.453125 -12.40625 L -11.734375 -13.625 C -11.984375 -13.851562 -12.082031 -14.054688 -12.03125 -14.234375 C -11.976562 -14.410156 -11.914062 -14.539062 -11.84375 -14.625 Z M -1.546875 -25.5 "/></g></g><g style="fill:#ffffff;fill-opacity:1;"><g transform="translate(865.884425, 783.896295)"><path style="stroke:none" d="M -2.421875 -21.5 L 13.34375 -15.34375 C 13.5625 -15.25 13.707031 -15.132812 13.78125 -15 C 13.820312 -14.957031 13.847656 -14.878906 13.859375 -14.765625 C 13.867188 -14.660156 13.8125 -14.539062 13.6875 -14.40625 L 12.015625 -12.65625 C 11.804688 -12.425781 11.539062 -12.378906 11.21875 -12.515625 L -2.8125 -18.09375 C -2.851562 -18.09375 -2.875 -18.09375 -2.875 -18.09375 L -2.921875 -18.046875 C -2.921875 -18.046875 -2.921875 -18.035156 -2.921875 -18.015625 C -2.929688 -18.003906 -2.925781 -17.984375 -2.90625 -17.953125 L 0.421875 -10.796875 L 2.359375 -12.84375 C 2.566406 -13.070312 2.820312 -13.128906 3.125 -13.015625 L 5.15625 -12.203125 C 5.382812 -12.078125 5.519531 -11.90625 5.5625 -11.6875 C 5.644531 -11.457031 5.59375 -11.242188 5.40625 -11.046875 L 1.984375 -7.4375 L 3.4375 -4.296875 C 3.582031 -3.984375 3.550781 -3.71875 3.34375 -3.5 L 1.640625 -1.703125 C 1.503906 -1.566406 1.382812 -1.5 1.28125 -1.5 C 1.1875 -1.507812 1.109375 -1.53125 1.046875 -1.5625 C 0.910156 -1.625 0.789062 -1.765625 0.6875 -1.984375 L -6.359375 -17.34375 C -6.722656 -18.113281 -6.894531 -18.734375 -6.875 -19.203125 C -6.863281 -19.253906 -6.851562 -19.320312 -6.84375 -19.40625 C -6.832031 -19.488281 -6.820312 -19.550781 -6.8125 -19.59375 C -6.71875 -20.144531 -6.472656 -20.632812 -6.078125 -21.0625 C -5.648438 -21.519531 -5.125 -21.796875 -4.5 -21.890625 C -3.882812 -21.992188 -3.304688 -21.914062 -2.765625 -21.65625 C -2.710938 -21.644531 -2.65625 -21.625 -2.59375 -21.59375 C -2.53125 -21.570312 -2.472656 -21.539062 -2.421875 -21.5 Z M -2.421875 -21.5 "/></g></g><g style="fill:#ffffff;fill-opacity:1;"><g transform="translate(882.861458, 765.984869)"><path style="stroke:none" d="M -10.4375 -16.109375 C -10.375 -16.171875 -10.25 -16.234375 -10.0625 -16.296875 C -9.882812 -16.367188 -9.671875 -16.28125 -9.421875 -16.03125 L 2.984375 -4.28125 C 3.234375 -4.039062 3.332031 -3.828125 3.28125 -3.640625 C 3.238281 -3.453125 3.1875 -3.328125 3.125 -3.265625 L 1.6875 -1.75 C 1.632812 -1.6875 1.515625 -1.625 1.328125 -1.5625 C 1.148438 -1.507812 0.9375 -1.601562 0.6875 -1.84375 L -11.71875 -13.59375 C -11.96875 -13.84375 -12.066406 -14.054688 -12.015625 -14.234375 C -11.972656 -14.410156 -11.925781 -14.53125 -11.875 -14.59375 Z M -10.4375 -16.109375 "/></g></g><g style="fill:#ffffff;fill-opacity:1;"><g transform="translate(889.340911, 759.148795)"><path style="stroke:none" d="M 7.8125 -13.09375 C 7.882812 -13.164062 8.003906 -13.234375 8.171875 -13.296875 C 8.347656 -13.359375 8.5625 -13.269531 8.8125 -13.03125 L 10.109375 -11.796875 C 10.359375 -11.554688 10.460938 -11.34375 10.421875 -11.15625 C 10.378906 -10.976562 10.320312 -10.851562 10.25 -10.78125 L 5.109375 -5.359375 C 4.421875 -4.628906 3.75 -4.101562 3.09375 -3.78125 C 2.425781 -3.425781 1.71875 -3.289062 0.96875 -3.375 C 0.257812 -3.414062 -0.503906 -3.6875 -1.328125 -4.1875 C -2.140625 -4.664062 -3 -5.332031 -3.90625 -6.1875 L -11.71875 -13.59375 C -11.976562 -13.84375 -12.082031 -14.054688 -12.03125 -14.234375 C -11.976562 -14.410156 -11.914062 -14.539062 -11.84375 -14.625 L -10.421875 -16.125 C -10.359375 -16.195312 -10.238281 -16.265625 -10.0625 -16.328125 C -9.882812 -16.390625 -9.664062 -16.296875 -9.40625 -16.046875 L -1.296875 -8.375 C -1.054688 -8.144531 -0.828125 -7.9375 -0.609375 -7.75 C -0.390625 -7.5625 -0.179688 -7.40625 0.015625 -7.28125 C 0.347656 -7.039062 0.675781 -6.90625 1 -6.875 C 1.28125 -6.8125 1.550781 -6.863281 1.8125 -7.03125 C 2.101562 -7.164062 2.414062 -7.40625 2.75 -7.75 Z M 7.8125 -13.09375 "/></g></g><g style="fill:#ffffff;fill-opacity:1;"><g transform="translate(902.942517, 744.798576)"><path style="stroke:none" d=""/></g></g><g style="fill:#004aad;fill-opacity:1;"><g transform="translate(836.198174, 861.191343)"><path style="stroke:none" d=""/></g></g><g style="fill:#004aad;fill-opacity:1;"><g transform="translate(844.252561, 853.136956)"><path style="stroke:none" d="M -9.984375 -16.390625 C -9.921875 -16.453125 -9.800781 -16.507812 -9.625 -16.5625 C -9.445312 -16.613281 -9.234375 -16.515625 -8.984375 -16.265625 L 3.09375 -4.1875 C 3.34375 -3.9375 3.441406 -3.722656 3.390625 -3.546875 C 3.335938 -3.367188 3.28125 -3.25 3.21875 -3.1875 L 1.734375 -1.703125 C 1.679688 -1.648438 1.5625 -1.59375 1.375 -1.53125 C 1.195312 -1.476562 0.984375 -1.578125 0.734375 -1.828125 L -11.34375 -13.90625 C -11.59375 -14.15625 -11.6875 -14.367188 -11.625 -14.546875 C -11.570312 -14.734375 -11.519531 -14.851562 -11.46875 -14.90625 Z M -9.984375 -16.390625 "/></g></g><g style="fill:#004aad;fill-opacity:1;"><g transform="translate(849.007098, 848.382419)"><path style="stroke:none" d="M -0.578125 -25.796875 C -0.503906 -25.867188 -0.378906 -25.929688 -0.203125 -25.984375 C -0.0351562 -26.046875 0.175781 -25.945312 0.4375 -25.6875 L 11.015625 -15.109375 C 11.785156 -14.335938 12.207031 -13.695312 12.28125 -13.1875 C 12.363281 -12.644531 12.171875 -12.140625 11.703125 -11.671875 L 10.53125 -10.5 C 10.320312 -10.289062 10.128906 -10.128906 9.953125 -10.015625 C 9.847656 -9.953125 9.742188 -9.894531 9.640625 -9.84375 C 9.546875 -9.800781 9.445312 -9.769531 9.34375 -9.75 C 9.125 -9.695312 8.882812 -9.695312 8.625 -9.75 C 8.5 -9.769531 8.351562 -9.796875 8.1875 -9.828125 C 8.03125 -9.867188 7.851562 -9.914062 7.65625 -9.96875 L -6.40625 -13.90625 C -6.4375 -13.914062 -6.457031 -13.914062 -6.46875 -13.90625 C -6.488281 -13.90625 -6.5 -13.90625 -6.5 -13.90625 L -6.59375 -13.8125 C -6.59375 -13.8125 -6.585938 -13.804688 -6.578125 -13.796875 C -6.578125 -13.796875 -6.570312 -13.789062 -6.5625 -13.78125 L 3.0625 -4.15625 C 3.3125 -3.90625 3.410156 -3.691406 3.359375 -3.515625 C 3.316406 -3.347656 3.257812 -3.226562 3.1875 -3.15625 L 1.765625 -1.734375 C 1.691406 -1.660156 1.5625 -1.59375 1.375 -1.53125 C 1.195312 -1.476562 0.984375 -1.578125 0.734375 -1.828125 L -9.84375 -12.40625 C -10.625 -13.1875 -11.050781 -13.832031 -11.125 -14.34375 C -11.1875 -14.882812 -10.988281 -15.382812 -10.53125 -15.84375 L -9.328125 -17.046875 C -9.222656 -17.148438 -9.117188 -17.25 -9.015625 -17.34375 C -8.921875 -17.445312 -8.828125 -17.523438 -8.734375 -17.578125 C -8.535156 -17.710938 -8.328125 -17.796875 -8.109375 -17.828125 C -7.921875 -17.867188 -7.679688 -17.859375 -7.390625 -17.796875 C -7.265625 -17.773438 -7.125 -17.742188 -6.96875 -17.703125 C -6.820312 -17.671875 -6.648438 -17.628906 -6.453125 -17.578125 L 7.59375 -13.65625 C 7.625 -13.625 7.648438 -13.617188 7.671875 -13.640625 L 7.75 -13.71875 C 7.738281 -13.726562 7.734375 -13.734375 7.734375 -13.734375 L -1.890625 -23.359375 C -2.148438 -23.617188 -2.25 -23.832031 -2.1875 -24 C -2.132812 -24.175781 -2.070312 -24.300781 -2 -24.375 Z M -0.578125 -25.796875 "/></g></g><g style="fill:#004aad;fill-opacity:1;"><g transform="translate(863.175162, 834.214355)"><path style="stroke:none" d="M -0.84375 -25.53125 C -0.769531 -25.601562 -0.644531 -25.671875 -0.46875 -25.734375 C -0.289062 -25.796875 -0.0820312 -25.707031 0.15625 -25.46875 L 1.40625 -24.21875 C 1.675781 -23.945312 1.78125 -23.722656 1.71875 -23.546875 C 1.65625 -23.367188 1.585938 -23.242188 1.515625 -23.171875 L -2.59375 -19.0625 L 7.6875 -8.78125 C 7.9375 -8.53125 8.03125 -8.316406 7.96875 -8.140625 C 7.914062 -7.972656 7.851562 -7.851562 7.78125 -7.78125 L 6.3125 -6.3125 C 6.238281 -6.238281 6.113281 -6.171875 5.9375 -6.109375 C 5.769531 -6.054688 5.5625 -6.15625 5.3125 -6.40625 L -4.96875 -16.6875 L -9.078125 -12.578125 C -9.148438 -12.503906 -9.273438 -12.4375 -9.453125 -12.375 C -9.628906 -12.3125 -9.851562 -12.414062 -10.125 -12.6875 L -11.375 -13.9375 C -11.613281 -14.175781 -11.703125 -14.382812 -11.640625 -14.5625 C -11.578125 -14.738281 -11.507812 -14.863281 -11.4375 -14.9375 Z M -0.84375 -25.53125 "/></g></g><g style="fill:#004aad;fill-opacity:1;"><g transform="translate(877.087077, 820.302441)"><path style="stroke:none" d="M 8.046875 -13.765625 C 8.117188 -13.835938 8.242188 -13.90625 8.421875 -13.96875 C 8.597656 -14.03125 8.8125 -13.9375 9.0625 -13.6875 L 10.8125 -11.9375 C 11.0625 -11.6875 11.15625 -11.472656 11.09375 -11.296875 C 11.03125 -11.117188 10.960938 -10.992188 10.890625 -10.921875 L 5.203125 -5.234375 C 4.859375 -4.890625 4.515625 -4.585938 4.171875 -4.328125 C 3.828125 -4.066406 3.484375 -3.859375 3.140625 -3.703125 C 2.429688 -3.367188 1.71875 -3.25 1 -3.34375 C 0.269531 -3.445312 -0.476562 -3.738281 -1.25 -4.21875 C -1.5625 -4.445312 -1.894531 -4.695312 -2.25 -4.96875 C -2.613281 -5.25 -2.988281 -5.570312 -3.375 -5.9375 L -3.453125 -6.015625 L -5.4375 -8.0625 C -5.519531 -8.207031 -5.597656 -8.398438 -5.671875 -8.640625 C -5.847656 -9.296875 -5.707031 -9.882812 -5.25 -10.40625 L 3 -18.6875 C 3.0625 -18.75 3.179688 -18.8125 3.359375 -18.875 C 3.535156 -18.9375 3.75 -18.84375 4 -18.59375 L 5.265625 -17.328125 C 5.503906 -17.085938 5.59375 -16.875 5.53125 -16.6875 C 5.476562 -16.507812 5.421875 -16.390625 5.359375 -16.328125 L -1.8125 -9.15625 C -1.8125 -9.15625 -1.75 -9.09375 -1.625 -8.96875 C -1.507812 -8.851562 -1.378906 -8.710938 -1.234375 -8.546875 C -1.097656 -8.390625 -0.96875 -8.25 -0.84375 -8.125 C -0.726562 -8.007812 -0.671875 -7.953125 -0.671875 -7.953125 C -0.609375 -7.929688 -0.550781 -7.894531 -0.5 -7.84375 C -0.457031 -7.800781 -0.421875 -7.765625 -0.390625 -7.734375 C -0.0351562 -7.484375 0.300781 -7.332031 0.625 -7.28125 C 0.90625 -7.25 1.179688 -7.296875 1.453125 -7.421875 C 1.609375 -7.492188 1.765625 -7.585938 1.921875 -7.703125 C 2.078125 -7.816406 2.238281 -7.957031 2.40625 -8.125 Z M -5.015625 -10.390625 Z M -2.296875 -24.140625 C -2.234375 -24.203125 -2.109375 -24.257812 -1.921875 -24.3125 C -1.742188 -24.375 -1.53125 -24.28125 -1.28125 -24.03125 L -0.03125 -22.78125 C 0.21875 -22.53125 0.3125 -22.3125 0.25 -22.125 C 0.195312 -21.945312 0.140625 -21.828125 0.078125 -21.765625 L -9.125 -12.5625 C -9.195312 -12.488281 -9.316406 -12.425781 -9.484375 -12.375 C -9.660156 -12.332031 -9.875 -12.4375 -10.125 -12.6875 L -11.375 -13.9375 C -11.625 -14.1875 -11.722656 -14.394531 -11.671875 -14.5625 C -11.628906 -14.738281 -11.570312 -14.863281 -11.5 -14.9375 Z M -2.296875 -24.140625 "/></g></g><g style="fill:#004aad;fill-opacity:1;"><g transform="translate(889.558143, 807.831374)"><path style="stroke:none" d="M 8.15625 -12.875 C 8.226562 -12.945312 8.351562 -13.007812 8.53125 -13.0625 C 8.707031 -13.113281 8.914062 -13.019531 9.15625 -12.78125 L 10.421875 -11.515625 C 10.671875 -11.265625 10.769531 -11.050781 10.71875 -10.875 C 10.664062 -10.695312 10.601562 -10.570312 10.53125 -10.5 L 5.25 -5.21875 C 4.539062 -4.507812 3.859375 -4.003906 3.203125 -3.703125 C 2.515625 -3.367188 1.796875 -3.253906 1.046875 -3.359375 C 0.347656 -3.410156 -0.40625 -3.695312 -1.21875 -4.21875 C -2.019531 -4.726562 -2.859375 -5.421875 -3.734375 -6.296875 L -11.34375 -13.90625 C -11.601562 -14.164062 -11.703125 -14.382812 -11.640625 -14.5625 C -11.578125 -14.738281 -11.507812 -14.863281 -11.4375 -14.9375 L -9.96875 -16.40625 C -9.90625 -16.46875 -9.785156 -16.53125 -9.609375 -16.59375 C -9.429688 -16.65625 -9.210938 -16.554688 -8.953125 -16.296875 L -1.0625 -8.40625 C -0.832031 -8.175781 -0.609375 -7.960938 -0.390625 -7.765625 C -0.179688 -7.578125 0.0195312 -7.414062 0.21875 -7.28125 C 0.539062 -7.039062 0.863281 -6.894531 1.1875 -6.84375 C 1.457031 -6.78125 1.726562 -6.820312 2 -6.96875 C 2.300781 -7.101562 2.617188 -7.335938 2.953125 -7.671875 Z M 8.15625 -12.875 "/></g></g><g style="fill:#004aad;fill-opacity:1;"><g transform="translate(901.628978, 795.760539)"><path style="stroke:none" d="M 8.15625 -12.875 C 8.226562 -12.945312 8.351562 -13.007812 8.53125 -13.0625 C 8.707031 -13.113281 8.914062 -13.019531 9.15625 -12.78125 L 10.421875 -11.515625 C 10.671875 -11.265625 10.769531 -11.050781 10.71875 -10.875 C 10.664062 -10.695312 10.601562 -10.570312 10.53125 -10.5 L 5.25 -5.21875 C 4.539062 -4.507812 3.859375 -4.003906 3.203125 -3.703125 C 2.515625 -3.367188 1.796875 -3.253906 1.046875 -3.359375 C 0.347656 -3.410156 -0.40625 -3.695312 -1.21875 -4.21875 C -2.019531 -4.726562 -2.859375 -5.421875 -3.734375 -6.296875 L -11.34375 -13.90625 C -11.601562 -14.164062 -11.703125 -14.382812 -11.640625 -14.5625 C -11.578125 -14.738281 -11.507812 -14.863281 -11.4375 -14.9375 L -9.96875 -16.40625 C -9.90625 -16.46875 -9.785156 -16.53125 -9.609375 -16.59375 C -9.429688 -16.65625 -9.210938 -16.554688 -8.953125 -16.296875 L -1.0625 -8.40625 C -0.832031 -8.175781 -0.609375 -7.960938 -0.390625 -7.765625 C -0.179688 -7.578125 0.0195312 -7.414062 0.21875 -7.28125 C 0.539062 -7.039062 0.863281 -6.894531 1.1875 -6.84375 C 1.457031 -6.78125 1.726562 -6.820312 2 -6.96875 C 2.300781 -7.101562 2.617188 -7.335938 2.953125 -7.671875 Z M 8.15625 -12.875 "/></g></g><g style="fill:#004aad;fill-opacity:1;"><g transform="translate(913.699813, 783.689704)"><path style="stroke:none" d="M -9.984375 -16.390625 C -9.921875 -16.453125 -9.800781 -16.507812 -9.625 -16.5625 C -9.445312 -16.613281 -9.234375 -16.515625 -8.984375 -16.265625 L 3.09375 -4.1875 C 3.34375 -3.9375 3.441406 -3.722656 3.390625 -3.546875 C 3.335938 -3.367188 3.28125 -3.25 3.21875 -3.1875 L 1.734375 -1.703125 C 1.679688 -1.648438 1.5625 -1.59375 1.375 -1.53125 C 1.195312 -1.476562 0.984375 -1.578125 0.734375 -1.828125 L -11.34375 -13.90625 C -11.59375 -14.15625 -11.6875 -14.367188 -11.625 -14.546875 C -11.570312 -14.734375 -11.519531 -14.851562 -11.46875 -14.90625 Z M -9.984375 -16.390625 "/></g></g><g style="fill:#004aad;fill-opacity:1;"><g transform="translate(918.454349, 778.935168)"><path style="stroke:none" d="M -1.0625 -25.3125 C -1 -25.375 -0.878906 -25.429688 -0.703125 -25.484375 C -0.523438 -25.535156 -0.3125 -25.4375 -0.0625 -25.1875 L 1.1875 -23.9375 C 1.4375 -23.6875 1.53125 -23.472656 1.46875 -23.296875 C 1.414062 -23.128906 1.359375 -23.015625 1.296875 -22.953125 L -5.515625 -16.140625 C -5.679688 -15.972656 -5.820312 -15.804688 -5.9375 -15.640625 C -6.0625 -15.484375 -6.15625 -15.332031 -6.21875 -15.1875 C -6.332031 -14.925781 -6.378906 -14.648438 -6.359375 -14.359375 C -6.285156 -14.035156 -6.132812 -13.71875 -5.90625 -13.40625 C -5.65625 -13.007812 -5.289062 -12.570312 -4.8125 -12.09375 L -1.09375 -8.375 C -0.613281 -7.894531 -0.175781 -7.53125 0.21875 -7.28125 C 0.539062 -7.039062 0.859375 -6.890625 1.171875 -6.828125 C 1.472656 -6.796875 1.75 -6.84375 2 -6.96875 C 2.269531 -7.070312 2.585938 -7.304688 2.953125 -7.671875 L 7.4375 -12.15625 C 7.613281 -12.332031 7.679688 -12.523438 7.640625 -12.734375 C 7.617188 -12.816406 7.5625 -12.929688 7.46875 -13.078125 C 7.382812 -13.234375 7.222656 -13.429688 6.984375 -13.671875 C 6.984375 -13.671875 6.90625 -13.742188 6.75 -13.890625 C 6.601562 -14.046875 6.414062 -14.234375 6.1875 -14.453125 C 5.96875 -14.679688 5.742188 -14.90625 5.515625 -15.125 C 5.285156 -15.34375 5.09375 -15.523438 4.9375 -15.671875 C 4.789062 -15.828125 4.71875 -15.90625 4.71875 -15.90625 L 0.71875 -11.90625 C 0.664062 -11.851562 0.550781 -11.796875 0.375 -11.734375 C 0.195312 -11.671875 -0.0234375 -11.773438 -0.296875 -12.046875 L -1.5 -13.25 C -1.757812 -13.507812 -1.859375 -13.726562 -1.796875 -13.90625 C -1.742188 -14.09375 -1.691406 -14.210938 -1.640625 -14.265625 L 4.03125 -19.9375 C 4.144531 -20.050781 4.304688 -20.132812 4.515625 -20.1875 C 4.722656 -20.238281 4.984375 -20.109375 5.296875 -19.796875 L 9.578125 -15.515625 C 10.640625 -14.453125 11.25 -13.539062 11.40625 -12.78125 C 11.550781 -11.988281 11.320312 -11.289062 10.71875 -10.6875 L 5.25 -5.21875 C 4.5625 -4.53125 3.867188 -4.015625 3.171875 -3.671875 C 2.503906 -3.359375 1.800781 -3.25 1.0625 -3.34375 C 0.300781 -3.4375 -0.457031 -3.71875 -1.21875 -4.1875 C -1.613281 -4.4375 -2.019531 -4.738281 -2.4375 -5.09375 C -2.851562 -5.445312 -3.285156 -5.847656 -3.734375 -6.296875 L -6.890625 -9.453125 C -7.335938 -9.898438 -7.734375 -10.328125 -8.078125 -10.734375 C -8.429688 -11.148438 -8.726562 -11.550781 -8.96875 -11.9375 C -9.207031 -12.34375 -9.398438 -12.734375 -9.546875 -13.109375 C -9.691406 -13.484375 -9.78125 -13.851562 -9.8125 -14.21875 C -9.914062 -14.90625 -9.8125 -15.613281 -9.5 -16.34375 C -9.15625 -17.039062 -8.640625 -17.734375 -7.953125 -18.421875 Z M -1.0625 -25.3125 "/></g></g><g style="fill:#004aad;fill-opacity:1;"><g transform="translate(932.126119, 765.263398)"><path style="stroke:none" d="M 8.046875 -13.765625 C 8.117188 -13.835938 8.242188 -13.90625 8.421875 -13.96875 C 8.597656 -14.03125 8.8125 -13.9375 9.0625 -13.6875 L 10.8125 -11.9375 C 11.0625 -11.6875 11.15625 -11.472656 11.09375 -11.296875 C 11.03125 -11.117188 10.960938 -10.992188 10.890625 -10.921875 L 5.203125 -5.234375 C 4.859375 -4.890625 4.515625 -4.585938 4.171875 -4.328125 C 3.828125 -4.066406 3.484375 -3.859375 3.140625 -3.703125 C 2.429688 -3.367188 1.71875 -3.25 1 -3.34375 C 0.269531 -3.445312 -0.476562 -3.738281 -1.25 -4.21875 C -1.5625 -4.445312 -1.894531 -4.695312 -2.25 -4.96875 C -2.613281 -5.25 -2.988281 -5.570312 -3.375 -5.9375 L -3.453125 -6.015625 L -5.4375 -8.0625 C -5.519531 -8.207031 -5.597656 -8.398438 -5.671875 -8.640625 C -5.847656 -9.296875 -5.707031 -9.882812 -5.25 -10.40625 L 3 -18.6875 C 3.0625 -18.75 3.179688 -18.8125 3.359375 -18.875 C 3.535156 -18.9375 3.75 -18.84375 4 -18.59375 L 5.265625 -17.328125 C 5.503906 -17.085938 5.59375 -16.875 5.53125 -16.6875 C 5.476562 -16.507812 5.421875 -16.390625 5.359375 -16.328125 L -1.8125 -9.15625 C -1.8125 -9.15625 -1.75 -9.09375 -1.625 -8.96875 C -1.507812 -8.851562 -1.378906 -8.710938 -1.234375 -8.546875 C -1.097656 -8.390625 -0.96875 -8.25 -0.84375 -8.125 C -0.726562 -8.007812 -0.671875 -7.953125 -0.671875 -7.953125 C -0.609375 -7.929688 -0.550781 -7.894531 -0.5 -7.84375 C -0.457031 -7.800781 -0.421875 -7.765625 -0.390625 -7.734375 C -0.0351562 -7.484375 0.300781 -7.332031 0.625 -7.28125 C 0.90625 -7.25 1.179688 -7.296875 1.453125 -7.421875 C 1.609375 -7.492188 1.765625 -7.585938 1.921875 -7.703125 C 2.078125 -7.816406 2.238281 -7.957031 2.40625 -8.125 Z M -5.015625 -10.390625 Z M -2.296875 -24.140625 C -2.234375 -24.203125 -2.109375 -24.257812 -1.921875 -24.3125 C -1.742188 -24.375 -1.53125 -24.28125 -1.28125 -24.03125 L -0.03125 -22.78125 C 0.21875 -22.53125 0.3125 -22.3125 0.25 -22.125 C 0.195312 -21.945312 0.140625 -21.828125 0.078125 -21.765625 L -9.125 -12.5625 C -9.195312 -12.488281 -9.316406 -12.425781 -9.484375 -12.375 C -9.660156 -12.332031 -9.875 -12.4375 -10.125 -12.6875 L -11.375 -13.9375 C -11.625 -14.1875 -11.722656 -14.394531 -11.671875 -14.5625 C -11.628906 -14.738281 -11.570312 -14.863281 -11.5 -14.9375 Z M -2.296875 -24.140625 "/></g></g><g style="fill:#004aad;fill-opacity:1;"><g transform="translate(944.597186, 752.792331)"><path style="stroke:none" d="M -0.578125 -25.796875 C -0.503906 -25.867188 -0.378906 -25.929688 -0.203125 -25.984375 C -0.0351562 -26.046875 0.175781 -25.945312 0.4375 -25.6875 L 11.015625 -15.109375 C 11.785156 -14.335938 12.207031 -13.695312 12.28125 -13.1875 C 12.363281 -12.644531 12.171875 -12.140625 11.703125 -11.671875 L 10.53125 -10.5 C 10.320312 -10.289062 10.128906 -10.128906 9.953125 -10.015625 C 9.847656 -9.953125 9.742188 -9.894531 9.640625 -9.84375 C 9.546875 -9.800781 9.445312 -9.769531 9.34375 -9.75 C 9.125 -9.695312 8.882812 -9.695312 8.625 -9.75 C 8.5 -9.769531 8.351562 -9.796875 8.1875 -9.828125 C 8.03125 -9.867188 7.851562 -9.914062 7.65625 -9.96875 L -6.40625 -13.90625 C -6.4375 -13.914062 -6.457031 -13.914062 -6.46875 -13.90625 C -6.488281 -13.90625 -6.5 -13.90625 -6.5 -13.90625 L -6.59375 -13.8125 C -6.59375 -13.8125 -6.585938 -13.804688 -6.578125 -13.796875 C -6.578125 -13.796875 -6.570312 -13.789062 -6.5625 -13.78125 L 3.0625 -4.15625 C 3.3125 -3.90625 3.410156 -3.691406 3.359375 -3.515625 C 3.316406 -3.347656 3.257812 -3.226562 3.1875 -3.15625 L 1.765625 -1.734375 C 1.691406 -1.660156 1.5625 -1.59375 1.375 -1.53125 C 1.195312 -1.476562 0.984375 -1.578125 0.734375 -1.828125 L -9.84375 -12.40625 C -10.625 -13.1875 -11.050781 -13.832031 -11.125 -14.34375 C -11.1875 -14.882812 -10.988281 -15.382812 -10.53125 -15.84375 L -9.328125 -17.046875 C -9.222656 -17.148438 -9.117188 -17.25 -9.015625 -17.34375 C -8.921875 -17.445312 -8.828125 -17.523438 -8.734375 -17.578125 C -8.535156 -17.710938 -8.328125 -17.796875 -8.109375 -17.828125 C -7.921875 -17.867188 -7.679688 -17.859375 -7.390625 -17.796875 C -7.265625 -17.773438 -7.125 -17.742188 -6.96875 -17.703125 C -6.820312 -17.671875 -6.648438 -17.628906 -6.453125 -17.578125 L 7.59375 -13.65625 C 7.625 -13.625 7.648438 -13.617188 7.671875 -13.640625 L 7.75 -13.71875 C 7.738281 -13.726562 7.734375 -13.734375 7.734375 -13.734375 L -1.890625 -23.359375 C -2.148438 -23.617188 -2.25 -23.832031 -2.1875 -24 C -2.132812 -24.175781 -2.070312 -24.300781 -2 -24.375 Z M -0.578125 -25.796875 "/></g></g><g style="fill:#004aad;fill-opacity:1;"><g transform="translate(958.765251, 738.624267)"><path style="stroke:none" d="M -2.125 -24.25 C -2.0625 -24.3125 -1.9375 -24.367188 -1.75 -24.421875 C -1.570312 -24.484375 -1.359375 -24.390625 -1.109375 -24.140625 L 0.109375 -22.921875 C 0.367188 -22.660156 0.46875 -22.4375 0.40625 -22.25 C 0.351562 -22.070312 0.296875 -21.953125 0.234375 -21.890625 L -5.515625 -16.140625 C -5.878906 -15.773438 -6.113281 -15.457031 -6.21875 -15.1875 C -6.351562 -14.945312 -6.398438 -14.671875 -6.359375 -14.359375 C -6.316406 -14.085938 -6.171875 -13.765625 -5.921875 -13.390625 C -5.785156 -13.210938 -5.628906 -13.015625 -5.453125 -12.796875 C -5.285156 -12.585938 -5.078125 -12.359375 -4.828125 -12.109375 L -1.09375 -8.375 C -0.863281 -8.144531 -0.632812 -7.9375 -0.40625 -7.75 C -0.1875 -7.570312 0.015625 -7.410156 0.203125 -7.265625 C 0.378906 -7.148438 0.546875 -7.054688 0.703125 -6.984375 C 0.859375 -6.910156 1.015625 -6.859375 1.171875 -6.828125 C 1.472656 -6.796875 1.75 -6.84375 2 -6.96875 C 2.269531 -7.070312 2.585938 -7.304688 2.953125 -7.671875 L 8.703125 -13.421875 C 8.765625 -13.484375 8.882812 -13.539062 9.0625 -13.59375 C 9.25 -13.65625 9.460938 -13.566406 9.703125 -13.328125 L 10.96875 -12.0625 C 11.21875 -11.8125 11.3125 -11.59375 11.25 -11.40625 C 11.195312 -11.226562 11.140625 -11.109375 11.078125 -11.046875 L 5.25 -5.21875 C 4.5625 -4.53125 3.867188 -4.015625 3.171875 -3.671875 C 2.503906 -3.359375 1.800781 -3.25 1.0625 -3.34375 C 0.300781 -3.4375 -0.457031 -3.71875 -1.21875 -4.1875 C -1.613281 -4.4375 -2.019531 -4.738281 -2.4375 -5.09375 C -2.851562 -5.445312 -3.285156 -5.847656 -3.734375 -6.296875 L -6.890625 -9.453125 C -7.335938 -9.898438 -7.734375 -10.328125 -8.078125 -10.734375 C -8.429688 -11.148438 -8.726562 -11.550781 -8.96875 -11.9375 C -9.457031 -12.71875 -9.738281 -13.476562 -9.8125 -14.21875 C -9.914062 -14.925781 -9.8125 -15.632812 -9.5 -16.34375 C -9.15625 -17.039062 -8.640625 -17.734375 -7.953125 -18.421875 Z M -2.125 -24.25 "/></g></g><g style="fill:#004aad;fill-opacity:1;"><g transform="translate(971.380399, 726.009118)"><path style="stroke:none" d="M 8.046875 -13.765625 C 8.117188 -13.835938 8.242188 -13.90625 8.421875 -13.96875 C 8.597656 -14.03125 8.8125 -13.9375 9.0625 -13.6875 L 10.8125 -11.9375 C 11.0625 -11.6875 11.15625 -11.472656 11.09375 -11.296875 C 11.03125 -11.117188 10.960938 -10.992188 10.890625 -10.921875 L 5.203125 -5.234375 C 4.859375 -4.890625 4.515625 -4.585938 4.171875 -4.328125 C 3.828125 -4.066406 3.484375 -3.859375 3.140625 -3.703125 C 2.429688 -3.367188 1.71875 -3.25 1 -3.34375 C 0.269531 -3.445312 -0.476562 -3.738281 -1.25 -4.21875 C -1.5625 -4.445312 -1.894531 -4.695312 -2.25 -4.96875 C -2.613281 -5.25 -2.988281 -5.570312 -3.375 -5.9375 L -3.453125 -6.015625 L -5.4375 -8.0625 C -5.519531 -8.207031 -5.597656 -8.398438 -5.671875 -8.640625 C -5.847656 -9.296875 -5.707031 -9.882812 -5.25 -10.40625 L 3 -18.6875 C 3.0625 -18.75 3.179688 -18.8125 3.359375 -18.875 C 3.535156 -18.9375 3.75 -18.84375 4 -18.59375 L 5.265625 -17.328125 C 5.503906 -17.085938 5.59375 -16.875 5.53125 -16.6875 C 5.476562 -16.507812 5.421875 -16.390625 5.359375 -16.328125 L -1.8125 -9.15625 C -1.8125 -9.15625 -1.75 -9.09375 -1.625 -8.96875 C -1.507812 -8.851562 -1.378906 -8.710938 -1.234375 -8.546875 C -1.097656 -8.390625 -0.96875 -8.25 -0.84375 -8.125 C -0.726562 -8.007812 -0.671875 -7.953125 -0.671875 -7.953125 C -0.609375 -7.929688 -0.550781 -7.894531 -0.5 -7.84375 C -0.457031 -7.800781 -0.421875 -7.765625 -0.390625 -7.734375 C -0.0351562 -7.484375 0.300781 -7.332031 0.625 -7.28125 C 0.90625 -7.25 1.179688 -7.296875 1.453125 -7.421875 C 1.609375 -7.492188 1.765625 -7.585938 1.921875 -7.703125 C 2.078125 -7.816406 2.238281 -7.957031 2.40625 -8.125 Z M -5.015625 -10.390625 Z M -2.296875 -24.140625 C -2.234375 -24.203125 -2.109375 -24.257812 -1.921875 -24.3125 C -1.742188 -24.375 -1.53125 -24.28125 -1.28125 -24.03125 L -0.03125 -22.78125 C 0.21875 -22.53125 0.3125 -22.3125 0.25 -22.125 C 0.195312 -21.945312 0.140625 -21.828125 0.078125 -21.765625 L -9.125 -12.5625 C -9.195312 -12.488281 -9.316406 -12.425781 -9.484375 -12.375 C -9.660156 -12.332031 -9.875 -12.4375 -10.125 -12.6875 L -11.375 -13.9375 C -11.625 -14.1875 -11.722656 -14.394531 -11.671875 -14.5625 C -11.628906 -14.738281 -11.570312 -14.863281 -11.5 -14.9375 Z M -2.296875 -24.140625 "/></g></g><g style="fill:#004aad;fill-opacity:1;"><g transform="translate(983.851458, 713.538059)"><path style="stroke:none" d=""/></g></g><g style="fill:#004aad;fill-opacity:1;"><g transform="translate(991.903936, 705.485581)"><path style="stroke:none" d="M -2.125 -24.25 C -2.0625 -24.3125 -1.9375 -24.367188 -1.75 -24.421875 C -1.570312 -24.484375 -1.359375 -24.390625 -1.109375 -24.140625 L 0.109375 -22.921875 C 0.367188 -22.660156 0.46875 -22.4375 0.40625 -22.25 C 0.351562 -22.070312 0.296875 -21.953125 0.234375 -21.890625 L -5.515625 -16.140625 C -5.878906 -15.773438 -6.113281 -15.457031 -6.21875 -15.1875 C -6.351562 -14.945312 -6.398438 -14.671875 -6.359375 -14.359375 C -6.316406 -14.085938 -6.171875 -13.765625 -5.921875 -13.390625 C -5.785156 -13.210938 -5.628906 -13.015625 -5.453125 -12.796875 C -5.285156 -12.585938 -5.078125 -12.359375 -4.828125 -12.109375 L -1.09375 -8.375 C -0.863281 -8.144531 -0.632812 -7.9375 -0.40625 -7.75 C -0.1875 -7.570312 0.015625 -7.410156 0.203125 -7.265625 C 0.378906 -7.148438 0.546875 -7.054688 0.703125 -6.984375 C 0.859375 -6.910156 1.015625 -6.859375 1.171875 -6.828125 C 1.472656 -6.796875 1.75 -6.84375 2 -6.96875 C 2.269531 -7.070312 2.585938 -7.304688 2.953125 -7.671875 L 8.703125 -13.421875 C 8.765625 -13.484375 8.882812 -13.539062 9.0625 -13.59375 C 9.25 -13.65625 9.460938 -13.566406 9.703125 -13.328125 L 10.96875 -12.0625 C 11.21875 -11.8125 11.3125 -11.59375 11.25 -11.40625 C 11.195312 -11.226562 11.140625 -11.109375 11.078125 -11.046875 L 5.25 -5.21875 C 4.5625 -4.53125 3.867188 -4.015625 3.171875 -3.671875 C 2.503906 -3.359375 1.800781 -3.25 1.0625 -3.34375 C 0.300781 -3.4375 -0.457031 -3.71875 -1.21875 -4.1875 C -1.613281 -4.4375 -2.019531 -4.738281 -2.4375 -5.09375 C -2.851562 -5.445312 -3.285156 -5.847656 -3.734375 -6.296875 L -6.890625 -9.453125 C -7.335938 -9.898438 -7.734375 -10.328125 -8.078125 -10.734375 C -8.429688 -11.148438 -8.726562 -11.550781 -8.96875 -11.9375 C -9.457031 -12.71875 -9.738281 -13.476562 -9.8125 -14.21875 C -9.914062 -14.925781 -9.8125 -15.632812 -9.5 -16.34375 C -9.15625 -17.039062 -8.640625 -17.734375 -7.953125 -18.421875 Z M -2.125 -24.25 "/></g></g><g style="fill:#004aad;fill-opacity:1;"><g transform="translate(1004.519084, 692.870433)"><path style="stroke:none" d="M 0.171875 -24.203125 C 0.859375 -24.140625 1.609375 -23.847656 2.421875 -23.328125 C 2.796875 -23.078125 3.191406 -22.78125 3.609375 -22.4375 C 4.023438 -22.09375 4.457031 -21.695312 4.90625 -21.25 L 8.0625 -18.09375 C 8.507812 -17.644531 8.90625 -17.207031 9.25 -16.78125 C 9.601562 -16.363281 9.90625 -15.96875 10.15625 -15.59375 C 10.65625 -14.800781 10.953125 -14.046875 11.046875 -13.328125 C 11.128906 -12.578125 11.007812 -11.863281 10.6875 -11.1875 C 10.351562 -10.5 9.835938 -9.804688 9.140625 -9.109375 L 5.234375 -5.203125 C 4.535156 -4.503906 3.847656 -3.992188 3.171875 -3.671875 C 2.492188 -3.347656 1.773438 -3.234375 1.015625 -3.328125 C 0.285156 -3.429688 -0.460938 -3.722656 -1.234375 -4.203125 C -1.617188 -4.441406 -2.019531 -4.738281 -2.4375 -5.09375 C -2.851562 -5.445312 -3.285156 -5.847656 -3.734375 -6.296875 L -6.890625 -9.453125 C -7.816406 -10.378906 -8.507812 -11.207031 -8.96875 -11.9375 C -9.457031 -12.71875 -9.75 -13.46875 -9.84375 -14.1875 C -9.914062 -14.925781 -9.800781 -15.644531 -9.5 -16.34375 C -9.15625 -17.039062 -8.644531 -17.726562 -7.96875 -18.40625 L -4.0625 -22.3125 C -3.363281 -23.007812 -2.671875 -23.523438 -1.984375 -23.859375 C -1.285156 -24.160156 -0.566406 -24.273438 0.171875 -24.203125 Z M 2.234375 -19.140625 C 1.992188 -19.378906 1.769531 -19.59375 1.5625 -19.78125 C 1.351562 -19.96875 1.160156 -20.128906 0.984375 -20.265625 C 0.628906 -20.515625 0.296875 -20.660156 -0.015625 -20.703125 C -0.265625 -20.742188 -0.539062 -20.695312 -0.84375 -20.5625 C -0.988281 -20.5 -1.140625 -20.410156 -1.296875 -20.296875 C -1.453125 -20.179688 -1.613281 -20.039062 -1.78125 -19.875 L -5.53125 -16.125 C -5.707031 -15.945312 -5.847656 -15.78125 -5.953125 -15.625 C -6.066406 -15.476562 -6.15625 -15.332031 -6.21875 -15.1875 C -6.34375 -14.894531 -6.390625 -14.617188 -6.359375 -14.359375 C -6.335938 -14.210938 -6.285156 -14.054688 -6.203125 -13.890625 C -6.117188 -13.722656 -6.019531 -13.550781 -5.90625 -13.375 C -5.769531 -13.195312 -5.613281 -13 -5.4375 -12.78125 C -5.257812 -12.5625 -5.050781 -12.332031 -4.8125 -12.09375 L -1.078125 -8.359375 C -0.847656 -8.128906 -0.625 -7.925781 -0.40625 -7.75 C -0.1875 -7.570312 0.015625 -7.410156 0.203125 -7.265625 C 0.367188 -7.160156 0.53125 -7.066406 0.6875 -6.984375 C 0.851562 -6.910156 1.015625 -6.859375 1.171875 -6.828125 C 1.453125 -6.773438 1.726562 -6.820312 2 -6.96875 C 2.269531 -7.070312 2.582031 -7.300781 2.9375 -7.65625 L 6.6875 -11.40625 C 7.039062 -11.757812 7.269531 -12.070312 7.375 -12.34375 C 7.53125 -12.625 7.578125 -12.898438 7.515625 -13.171875 C 7.472656 -13.460938 7.332031 -13.789062 7.09375 -14.15625 C 6.945312 -14.34375 6.78125 -14.539062 6.59375 -14.75 C 6.40625 -14.957031 6.195312 -15.175781 5.96875 -15.40625 Z M 2.234375 -19.140625 "/></g></g><g style="fill:#004aad;fill-opacity:1;"><g transform="translate(1018.706289, 678.683228)"><path style="stroke:none" d=""/></g></g><g style="fill:#ffffff;fill-opacity:1;"><g transform="translate(805.627684, 809.717323)"><path style="stroke:none" d="M -0.65625 -22.59375 L 15.21875 -14.796875 C 15.4375 -14.691406 15.582031 -14.566406 15.65625 -14.421875 C 15.675781 -14.359375 15.691406 -14.269531 15.703125 -14.15625 C 15.710938 -14.050781 15.640625 -13.9375 15.484375 -13.8125 L 13.609375 -12.125 C 13.359375 -11.90625 13.078125 -11.882812 12.765625 -12.0625 L -1.375 -19.0625 C -1.40625 -19.070312 -1.421875 -19.078125 -1.421875 -19.078125 L -1.484375 -19.015625 C -1.484375 -19.015625 -1.484375 -19.007812 -1.484375 -19 C -1.492188 -18.988281 -1.488281 -18.96875 -1.46875 -18.9375 L 1.359375 -11.21875 L 3.546875 -13.171875 C 3.796875 -13.390625 4.078125 -13.421875 4.390625 -13.265625 L 6.40625 -12.265625 C 6.644531 -12.117188 6.773438 -11.925781 6.796875 -11.6875 C 6.847656 -11.4375 6.769531 -11.21875 6.5625 -11.03125 L 2.6875 -7.578125 L 3.953125 -4.15625 C 4.078125 -3.832031 4.023438 -3.566406 3.796875 -3.359375 L 1.84375 -1.625 C 1.707031 -1.5 1.582031 -1.441406 1.46875 -1.453125 C 1.363281 -1.472656 1.28125 -1.503906 1.21875 -1.546875 C 1.09375 -1.617188 0.984375 -1.769531 0.890625 -2 L -5.125 -18.609375 C -5.4375 -19.441406 -5.554688 -20.097656 -5.484375 -20.578125 C -5.472656 -20.628906 -5.460938 -20.695312 -5.453125 -20.78125 C -5.441406 -20.863281 -5.421875 -20.9375 -5.390625 -21 C -5.242188 -21.5625 -4.941406 -22.046875 -4.484375 -22.453125 C -4.003906 -22.878906 -3.4375 -23.117188 -2.78125 -23.171875 C -2.132812 -23.234375 -1.539062 -23.097656 -1 -22.765625 C -0.9375 -22.742188 -0.875 -22.71875 -0.8125 -22.6875 C -0.757812 -22.65625 -0.707031 -22.625 -0.65625 -22.59375 Z M -0.65625 -22.59375 "/></g></g></g></svg>